<svg width="384" height="57" viewBox="0 0 384 57" fill="none" xmlns="http://www.w3.org/2000/svg">
<path fill-rule="evenodd" clip-rule="evenodd" d="M21.4477 40C20.4362 40 19.441 39.6218 18.6743 38.8486L10.142 30.246C9.40785 29.5057 9 28.5023 9 27.4497C9 26.3969 9.40785 25.41 10.142 24.6534L18.5764 16.1494C20.0937 14.6196 22.5734 14.6196 24.0907 16.1329L31.2687 23.2058C31.5624 23.5019 32.0519 23.5019 32.3454 23.2058L40.0294 15.475C40.3231 15.1789 40.8125 15.1789 41.1062 15.475L43.7165 18.1068C44.01 18.4029 44.01 18.8963 43.7165 19.1924L36.2119 26.7424C35.8531 27.1043 35.8531 27.7129 36.2119 28.0747L43.7654 35.526C44.0754 35.8221 44.0754 36.3155 43.7817 36.6116L41.204 39.2763C40.9103 39.5888 40.421 39.5888 40.1274 39.2929L32.5086 31.7757C32.1497 31.4138 31.5624 31.4302 31.2036 31.7757L24.1884 38.8321C23.4543 39.6218 22.4428 40 21.4477 40ZM15.3135 28.0089L20.9093 33.6509C21.203 33.947 21.6924 33.947 21.986 33.6509L27.5817 28.0254C27.8917 27.7129 27.8754 27.2194 27.5817 26.9233L21.9045 21.3307C21.6108 21.0346 21.1214 21.0346 20.8277 21.3307L15.2972 26.8904C15.0035 27.2194 15.0035 27.6964 15.3135 28.0089Z" fill="white"/>
<path fill-rule="evenodd" clip-rule="evenodd" d="M28 0C12.5439 0 0 12.3039 0 27.5C0 42.6961 12.5276 55 28 55C43.4561 55 56 42.6961 56 27.5C56 12.3039 43.4561 0 28 0ZM28 49.8068C15.5375 49.8068 5.43404 39.8199 5.43404 27.5C5.43404 15.1801 15.5375 5.20919 28 5.20919C40.4625 5.20919 50.566 15.1961 50.566 27.516C50.566 39.8358 40.4625 49.8068 28 49.8068Z" fill="white"/>
<path d="M95.6313 43.6366C97.9582 43.6366 99.9799 43.4466 101.735 42.9906C103.451 42.5726 104.901 41.8506 106.045 40.7866C107.189 39.7606 108.029 38.3546 108.601 36.6066C109.173 34.8586 109.478 32.6546 109.478 29.9946C109.478 27.2586 109.173 24.9786 108.563 23.1926C107.952 21.4446 107.037 20.0386 105.892 19.0126C104.71 17.9866 103.26 17.2646 101.544 16.8846C99.7891 16.5046 97.8437 16.2766 95.6313 16.2766C93.3807 16.2766 91.3971 16.5046 89.6805 16.8846C87.964 17.2646 86.5144 17.9866 85.3701 19.0126C84.1876 20.0386 83.3102 21.4446 82.6999 23.1926C82.0895 24.9786 81.7844 27.2586 81.7844 29.9946C81.7844 32.6546 82.0514 34.8586 82.6236 36.6066C83.1958 38.3546 84.0731 39.7606 85.2175 40.7866C86.3619 41.8506 87.7733 42.5726 89.528 42.9906C91.2445 43.4466 93.2662 43.6366 95.6313 43.6366ZM95.6313 39.0766C94.1436 39.0766 92.8466 39.0006 91.7786 38.7726C90.7105 38.5446 89.795 38.1266 89.1084 37.4806C88.3836 36.8346 87.8495 35.9226 87.5062 34.7066C87.1629 33.5286 87.0103 31.9706 87.0103 29.9946C87.0103 27.9806 87.1629 26.3466 87.5062 25.1306C87.8495 23.9146 88.3836 23.0026 89.1084 22.3566C89.795 21.7486 90.7105 21.3306 91.7786 21.1406C92.8466 20.9506 94.1436 20.8366 95.6313 20.8366C97.0808 20.8366 98.3396 20.9506 99.4077 21.1406C100.476 21.3306 101.391 21.7486 102.116 22.3946C102.803 23.0406 103.337 23.9526 103.68 25.1686C104.023 26.3846 104.214 27.9806 104.214 29.9946C104.214 31.9706 104.023 33.5286 103.68 34.7066C103.337 35.9226 102.803 36.8346 102.116 37.4806C101.429 38.1266 100.514 38.5446 99.4458 38.7726C98.3778 39.0006 97.0808 39.0766 95.6313 39.0766ZM118.384 27.6766V16.8466H113.196V43.0666H118.384V32.3126H132.383V43.0666H137.571V16.8466H132.383V27.6766H118.384ZM148.865 27.3346V21.4826H159.508V43.0666H164.733V16.8466H144.02V26.1946C144.02 28.6646 143.944 30.6786 143.868 32.2746C143.753 33.8706 143.563 35.1626 143.296 36.0746C142.99 36.9866 142.609 37.6326 142.151 38.0126C141.655 38.3926 141.045 38.5446 140.282 38.5446V43.0666H141.808C143.105 43.0666 144.173 42.8006 145.088 42.2686C146.004 41.7366 146.729 40.8626 147.263 39.6466C147.797 38.4306 148.216 36.7966 148.483 34.7826C148.712 32.8066 148.865 30.2986 148.865 27.3346ZM178.655 16.8466L166.754 43.0666H172.438L174.307 38.6206H187.086L188.917 43.0666H194.715L182.928 16.8466H178.655ZM175.985 34.7066L180.753 23.3826L185.445 34.7066H175.985ZM201.938 34.7066V16.8466H196.789V43.0666H200.374L215.137 25.3586V43.0666H220.324V16.8466H216.586L201.938 34.7066ZM208.576 15.4406C211.093 15.4406 212.886 14.9846 213.916 14.0726C214.946 13.1606 215.48 11.8306 215.48 10.0066H211.513C211.513 10.7666 211.284 11.2606 210.826 11.5646C210.368 11.8686 209.606 11.9826 208.576 11.9826C207.508 11.9826 206.745 11.8686 206.287 11.5646C205.829 11.2606 205.6 10.7666 205.6 10.0066H201.633C201.633 11.8306 202.129 13.1606 203.197 14.0726C204.227 14.9846 206.02 15.4406 208.576 15.4406ZM229.58 27.6766V16.8466H224.392V43.0666H229.58V32.3126H243.579V43.0666H248.767V16.8466H243.579V27.6766H229.58ZM279.148 43.0666H285.785L273.96 28.9306L284.984 16.8466H278.804L267.055 30.2226V16.8466H261.868V43.0666H267.055V31.5146H270.031L279.148 43.0666ZM294.117 43.0666H300.068L313.419 16.8466H307.621L300.335 32.0846L292.363 16.8466H286.145L297.512 37.1006L294.117 43.0666ZM338.932 26.3846C338.932 24.6746 338.741 23.2306 338.398 22.0146C338.017 20.7986 337.483 19.8106 336.72 19.0506C335.957 18.2906 335.003 17.7586 333.859 17.3786C332.676 17.0366 331.265 16.8466 329.663 16.8466H315.473V43.0666H320.66V36.5686H329.739C332.829 36.5686 335.118 35.7706 336.643 34.1366C338.169 32.5026 338.932 29.9186 338.932 26.3846ZM320.66 21.2926H328.785C329.701 21.2926 330.464 21.3686 331.074 21.5206C331.684 21.6726 332.218 21.9766 332.6 22.3566C332.981 22.7366 333.248 23.2686 333.401 23.9146C333.554 24.5986 333.668 25.4346 333.668 26.4606C333.668 28.5886 333.248 30.0326 332.447 30.8686C331.646 31.7046 330.464 32.1226 328.862 32.1226H320.66V21.2926ZM368.234 33.5666H362.894C362.741 34.7446 362.474 35.6946 362.093 36.3786C361.711 37.1006 361.177 37.6706 360.567 38.0506C359.957 38.4686 359.194 38.7346 358.317 38.8866C357.401 39.0386 356.371 39.0766 355.227 39.0766C353.853 39.0766 352.633 39.0006 351.641 38.7726C350.611 38.5446 349.772 38.1266 349.085 37.4806C348.399 36.8346 347.865 35.9226 347.559 34.7066C347.216 33.5286 347.064 31.9706 347.064 29.9946C347.064 27.9806 347.216 26.3466 347.559 25.1306C347.865 23.9146 348.399 23.0026 349.085 22.3566C349.772 21.7486 350.611 21.3306 351.641 21.1406C352.633 20.9506 353.853 20.8366 355.227 20.8366C356.371 20.8366 357.401 20.9126 358.278 21.0266C359.118 21.1786 359.88 21.4066 360.491 21.7866C361.101 22.1666 361.559 22.6606 361.94 23.3446C362.322 24.0286 362.589 24.9026 362.741 25.9666H368.082C367.891 24.1426 367.51 22.6226 366.899 21.4066C366.289 20.1906 365.45 19.1646 364.382 18.4046C363.314 17.6446 362.055 17.1126 360.529 16.7706C359.003 16.4666 357.248 16.2766 355.227 16.2766C353.052 16.2766 351.145 16.5046 349.467 16.8846C347.788 17.2646 346.415 17.9866 345.271 19.0126C344.126 20.0386 343.287 21.4446 342.715 23.1926C342.105 24.9786 341.838 27.2586 341.838 29.9946C341.838 32.6546 342.105 34.8586 342.639 36.6066C343.173 38.3546 344.012 39.7606 345.156 40.7866C346.262 41.8506 347.674 42.5726 349.352 42.9906C351.031 43.4466 352.976 43.6366 355.227 43.6366C357.325 43.6366 359.156 43.4846 360.682 43.1046C362.207 42.7626 363.504 42.1926 364.572 41.3946C365.64 40.6346 366.442 39.5706 367.052 38.2786C367.662 36.9866 368.044 35.4286 368.234 33.5666Z" fill="white"/>
</svg>
