<svg width="280" height="36" viewBox="0 0 280 36" fill="none" xmlns="http://www.w3.org/2000/svg">
<path fill-rule="evenodd" clip-rule="evenodd" d="M14.1918 25.9489C13.5347 25.9489 12.8881 25.7084 12.39 25.2167L6.84663 19.7467C6.36967 19.276 6.10469 18.638 6.10469 17.9687C6.10469 17.2993 6.36967 16.6718 6.84663 16.1906L12.3264 10.7833C13.3121 9.81063 14.9232 9.81063 15.9089 10.7728L20.5724 15.2702C20.7632 15.4585 21.0813 15.4585 21.272 15.2702L26.2642 10.3545C26.455 10.1662 26.7729 10.1662 26.9637 10.3545L28.6596 12.028C28.8503 12.2162 28.8503 12.53 28.6596 12.7183L23.7839 17.5189C23.5508 17.7491 23.5508 18.1361 23.7839 18.3661L28.6914 23.1041C28.8928 23.2924 28.8928 23.6061 28.702 23.7944L27.0273 25.4887C26.8365 25.6874 26.5186 25.6874 26.3278 25.4992L21.378 20.7194C21.1448 20.4893 20.7632 20.4998 20.5301 20.7194L15.9724 25.2063C15.4955 25.7084 14.8384 25.9489 14.1918 25.9489ZM10.2065 18.3243L13.842 21.9118C14.0328 22.1 14.3508 22.1 14.5416 21.9118L18.177 18.3348C18.3784 18.1361 18.3678 17.8222 18.177 17.634L14.4886 14.0779C14.2978 13.8896 13.9798 13.8896 13.789 14.0779L10.1959 17.6131C10.0051 17.8223 10.0051 18.1255 10.2065 18.3243Z" fill="#301446"/>
<path fill-rule="evenodd" clip-rule="evenodd" d="M18.241 0C8.17191 0 0 8.05349 0 18C0 27.9465 8.16133 36 18.241 36C28.3102 36 36.4821 27.9465 36.4821 18C36.4821 8.05349 28.3102 0 18.241 0ZM18.241 32.6008C10.1221 32.6008 3.54009 26.0639 3.54009 18C3.54009 9.93609 10.1221 3.40965 18.241 3.40965C26.3599 3.40965 32.942 9.94653 32.942 18.0104C32.942 26.0744 26.3599 32.6008 18.241 32.6008Z" fill="#301446"/>
<path d="M56.1021 14.616C56.9923 14.616 57.7657 14.544 58.437 14.3712C59.0937 14.2128 59.6482 13.9392 60.086 13.536C60.5238 13.1472 60.8448 12.6144 61.0637 11.952C61.2826 11.2896 61.3993 10.4544 61.3993 9.4464C61.3993 8.4096 61.2826 7.5456 61.0491 6.8688C60.8156 6.2064 60.4654 5.6736 60.0276 5.2848C59.5752 4.896 59.0207 4.6224 58.364 4.4784C57.6928 4.3344 56.9485 4.248 56.1021 4.248C55.2412 4.248 54.4823 4.3344 53.8257 4.4784C53.169 4.6224 52.6145 4.896 52.1767 5.2848C51.7243 5.6736 51.3887 6.2064 51.1552 6.8688C50.9217 7.5456 50.8049 8.4096 50.8049 9.4464C50.8049 10.4544 50.9071 11.2896 51.126 11.952C51.3449 12.6144 51.6805 13.1472 52.1183 13.536C52.5561 13.9392 53.096 14.2128 53.7673 14.3712C54.424 14.544 55.1974 14.616 56.1021 14.616ZM56.1021 12.888C55.533 12.888 55.0369 12.8592 54.6283 12.7728C54.2197 12.6864 53.8694 12.528 53.6068 12.2832C53.3295 12.0384 53.1252 11.6928 52.9939 11.232C52.8625 10.7856 52.8042 10.1952 52.8042 9.4464C52.8042 8.6832 52.8625 8.064 52.9939 7.6032C53.1252 7.1424 53.3295 6.7968 53.6068 6.552C53.8694 6.3216 54.2197 6.1632 54.6283 6.0912C55.0369 6.0192 55.533 5.976 56.1021 5.976C56.6567 5.976 57.1382 6.0192 57.5468 6.0912C57.9554 6.1632 58.3057 6.3216 58.5829 6.5664C58.8456 6.8112 59.0499 7.1568 59.1812 7.6176C59.3126 8.0784 59.3855 8.6832 59.3855 9.4464C59.3855 10.1952 59.3126 10.7856 59.1812 11.232C59.0499 11.6928 58.8456 12.0384 58.5829 12.2832C58.3203 12.528 57.97 12.6864 57.5614 12.7728C57.1528 12.8592 56.6567 12.888 56.1021 12.888ZM64.8064 8.568V4.464H62.8218V14.4H64.8064V10.3248H70.162V14.4H72.1466V4.464H70.162V8.568H64.8064ZM76.4672 8.4384V6.2208H80.5386V14.4H82.5378V4.464H74.6139V8.0064C74.6139 8.9424 74.5847 9.7056 74.5555 10.3104C74.5117 10.9152 74.4388 11.4048 74.3366 11.7504C74.2199 12.096 74.0739 12.3408 73.8987 12.4848C73.7091 12.6288 73.4756 12.6864 73.1838 12.6864V14.4H73.7675C74.2637 14.4 74.6723 14.2992 75.0225 14.0976C75.3727 13.896 75.65 13.5648 75.8543 13.104C76.0586 12.6432 76.2191 12.024 76.3212 11.2608C76.4088 10.512 76.4672 9.5616 76.4672 8.4384ZM87.8633 4.464L83.3103 14.4H85.4846L86.1997 12.7152H91.0883L91.7889 14.4H94.007L89.4977 4.464H87.8633ZM86.8418 11.232L88.6659 6.9408L90.4608 11.232H86.8418ZM96.7705 11.232V4.464H94.8005V14.4H96.1722L101.82 7.6896V14.4H103.804V4.464H102.374L96.7705 11.232ZM99.3097 3.9312C100.273 3.9312 100.959 3.7584 101.353 3.4128C101.747 3.0672 101.951 2.5632 101.951 1.872H100.433C100.433 2.16 100.346 2.3472 100.171 2.4624C99.9956 2.5776 99.7037 2.6208 99.3097 2.6208C98.9011 2.6208 98.6092 2.5776 98.4341 2.4624C98.259 2.3472 98.1715 2.16 98.1715 1.872H96.6538C96.6538 2.5632 96.8435 3.0672 97.2521 3.4128C97.6461 3.7584 98.332 3.9312 99.3097 3.9312ZM107.345 8.568V4.464H105.36V14.4H107.345V10.3248H112.7V14.4H114.685V4.464H112.7V8.568H107.345ZM126.307 14.4H128.847L124.323 9.0432L128.54 4.464H126.176L121.681 9.5328V4.464H119.697V14.4H121.681V10.0224H122.82L126.307 14.4ZM132.034 14.4H134.311L139.418 4.464H137.2L134.413 10.2384L131.363 4.464H128.984L133.333 12.1392L132.034 14.4ZM149.178 8.0784C149.178 7.4304 149.105 6.8832 148.974 6.4224C148.828 5.9616 148.623 5.5872 148.332 5.2992C148.04 5.0112 147.675 4.8096 147.237 4.6656C146.785 4.536 146.245 4.464 145.632 4.464H140.203V14.4H142.188V11.9376H145.661C146.843 11.9376 147.719 11.6352 148.302 11.016C148.886 10.3968 149.178 9.4176 149.178 8.0784ZM142.188 6.1488H145.296C145.647 6.1488 145.938 6.1776 146.172 6.2352C146.405 6.2928 146.61 6.408 146.756 6.552C146.901 6.696 147.004 6.8976 147.062 7.1424C147.12 7.4016 147.164 7.7184 147.164 8.1072C147.164 8.9136 147.004 9.4608 146.697 9.7776C146.391 10.0944 145.938 10.2528 145.325 10.2528H142.188V6.1488ZM160.388 10.8H158.345C158.287 11.2464 158.184 11.6064 158.039 11.8656C157.893 12.1392 157.688 12.3552 157.455 12.4992C157.221 12.6576 156.93 12.7584 156.594 12.816C156.244 12.8736 155.85 12.888 155.412 12.888C154.887 12.888 154.42 12.8592 154.04 12.7728C153.646 12.6864 153.325 12.528 153.062 12.2832C152.8 12.0384 152.595 11.6928 152.479 11.232C152.347 10.7856 152.289 10.1952 152.289 9.4464C152.289 8.6832 152.347 8.064 152.479 7.6032C152.595 7.1424 152.8 6.7968 153.062 6.552C153.325 6.3216 153.646 6.1632 154.04 6.0912C154.42 6.0192 154.887 5.976 155.412 5.976C155.85 5.976 156.244 6.0048 156.579 6.048C156.9 6.1056 157.192 6.192 157.426 6.336C157.659 6.48 157.834 6.6672 157.98 6.9264C158.126 7.1856 158.228 7.5168 158.287 7.92H160.33C160.257 7.2288 160.111 6.6528 159.877 6.192C159.644 5.7312 159.323 5.3424 158.914 5.0544C158.506 4.7664 158.024 4.5648 157.44 4.4352C156.857 4.32 156.185 4.248 155.412 4.248C154.58 4.248 153.85 4.3344 153.208 4.4784C152.566 4.6224 152.041 4.896 151.603 5.2848C151.165 5.6736 150.844 6.2064 150.625 6.8688C150.392 7.5456 150.29 8.4096 150.29 9.4464C150.29 10.4544 150.392 11.2896 150.596 11.952C150.801 12.6144 151.122 13.1472 151.559 13.536C151.983 13.9392 152.522 14.2128 153.165 14.3712C153.807 14.544 154.551 14.616 155.412 14.616C156.214 14.616 156.915 14.5584 157.499 14.4144C158.082 14.2848 158.578 14.0688 158.987 13.7664C159.396 13.4784 159.702 13.0752 159.936 12.5856C160.169 12.096 160.315 11.5056 160.388 10.8Z" fill="#301446"/>
<mask id="path-4-outside-1_5604_247" maskUnits="userSpaceOnUse" x="50.0822" y="21.5918" width="229" height="13" fill="black">
<rect fill="white" x="50.0822" y="21.5918" width="229" height="13"/>
<path d="M58.3604 28.8918C58.3604 28.4382 58.2965 28.0602 58.1816 27.7452C58.0539 27.4302 57.8752 27.1782 57.6326 26.9766C57.3772 26.775 57.058 26.6364 56.6749 26.5482C56.2791 26.46 55.8066 26.4096 55.2576 26.4096H51.81V23.499H57.6964V22.806H51.0822V31.5H55.2831C56.3302 31.5 57.0963 31.2984 57.607 30.87C58.105 30.4542 58.3604 29.799 58.3604 28.8918ZM51.81 27.1026H55.2576C55.6917 27.1026 56.062 27.1404 56.3685 27.1908C56.6749 27.2538 56.9175 27.3546 57.0963 27.4932C57.2751 27.6318 57.4155 27.8208 57.4921 28.0476C57.5687 28.2744 57.6198 28.5642 57.6198 28.8918C57.6198 29.61 57.4155 30.114 57.0324 30.3912C56.6366 30.6684 56.0492 30.807 55.2831 30.807H51.81V27.1026ZM62.1977 31.311L60.9846 33.768H61.7125L65.9261 25.2H65.1728L62.5552 30.5928L59.695 25.2H58.9289L62.1977 31.311ZM67.1342 25.2V27.1404C67.1342 27.6948 67.1086 28.1862 67.0831 28.5894C67.0448 29.0052 66.9937 29.358 66.9298 29.6604C66.866 29.9628 66.7894 30.2022 66.6872 30.4038C66.5851 30.6054 66.4702 30.7692 66.3425 30.8952H65.5891V33.39H66.2914V31.5H72.5481V33.39H73.2504V30.8952H72.2033V25.2H67.1342ZM67.8237 27.2538V25.8048H71.5011V30.8952H67.1342C67.3385 30.5928 67.5044 30.1644 67.6321 29.5974C67.7598 29.043 67.8237 28.2618 67.8237 27.2538ZM77.6327 27.5814H74.8874V25.2H74.1851V31.5H77.7221C78.4627 31.5 79.0117 31.311 79.3437 30.933C79.6757 30.555 79.8417 30.0636 79.8417 29.4714C79.8417 29.2068 79.8034 28.9548 79.7268 28.728C79.6502 28.5012 79.5225 28.2996 79.3437 28.1232C79.1649 27.9594 78.9479 27.8334 78.667 27.7326C78.386 27.6318 78.0413 27.5814 77.6327 27.5814ZM74.8874 28.161H77.6199C77.9264 28.161 78.169 28.1988 78.3733 28.2744C78.5648 28.35 78.718 28.4382 78.833 28.5642C78.9479 28.6902 79.0245 28.8288 79.0756 28.98C79.1139 29.1312 79.1394 29.295 79.1394 29.4714C79.1394 29.7486 79.1011 29.9754 79.0245 30.1518C78.9479 30.3408 78.833 30.492 78.6925 30.5928C78.552 30.7062 78.386 30.7818 78.1945 30.8322C78.003 30.8826 77.7987 30.8952 77.5816 30.8952H74.8874V28.161ZM89.6811 29.4462H88.9788C88.9277 29.7612 88.8256 30.0258 88.6979 30.2274C88.5574 30.4416 88.3787 30.6054 88.1744 30.7314C87.9701 30.8574 87.7275 30.9582 87.4466 31.0086C87.1656 31.059 86.872 31.0842 86.54 31.0842C86.1186 31.0842 85.7483 31.0464 85.4291 30.9708C85.0971 30.8952 84.829 30.744 84.6119 30.5424C84.3821 30.3408 84.2161 30.0636 84.1011 29.7108C83.9735 29.358 83.9224 28.917 83.9224 28.3878C83.9224 27.8334 83.9735 27.3798 84.1011 27.027C84.2161 26.6742 84.3821 26.3844 84.6119 26.1828C84.829 25.9812 85.0971 25.83 85.4291 25.7418C85.7483 25.6662 86.1186 25.6158 86.54 25.6158C86.8592 25.6158 87.1529 25.641 87.421 25.6914C87.6892 25.7418 87.9318 25.83 88.1361 25.956C88.3404 26.082 88.5191 26.2458 88.6596 26.4474C88.7873 26.649 88.8894 26.9136 88.9405 27.216H89.6555C89.5279 26.4096 89.1959 25.83 88.6468 25.5024C88.0978 25.1748 87.3955 25.011 86.54 25.011C86.0037 25.011 85.5312 25.074 85.1226 25.1874C84.7141 25.3008 84.3693 25.4898 84.0884 25.7544C83.8075 26.019 83.5904 26.3718 83.4372 26.8002C83.284 27.2286 83.2201 27.7578 83.2201 28.3878C83.2201 29.0052 83.284 29.5218 83.4372 29.9376C83.5904 30.366 83.8075 30.7062 84.0884 30.9582C84.3693 31.2228 84.7141 31.4118 85.1226 31.5252C85.5312 31.6386 86.0037 31.689 86.54 31.689C87.421 31.689 88.1361 31.5252 88.6851 31.185C89.2342 30.8448 89.5662 30.2652 89.6811 29.4462ZM90.7268 25.2V27.1278C90.7268 27.4554 90.7778 27.7452 90.88 28.0098C90.9821 28.2744 91.1354 28.5012 91.3648 28.6902C91.5819 28.8792 91.8628 29.0178 92.2203 29.1186C92.5779 29.2194 92.9992 29.2698 93.4972 29.2698C93.8803 29.2698 94.2378 29.2446 94.5953 29.1942C94.9401 29.1438 95.2848 29.0808 95.6423 28.98V31.5H96.3446V25.2H95.6423V28.4004C95.2848 28.5012 94.9273 28.5642 94.5825 28.6146C94.225 28.665 93.8675 28.6776 93.4972 28.6776C93.0886 28.6776 92.7438 28.6398 92.4885 28.5642C92.2203 28.4886 92.0033 28.3752 91.85 28.2366C91.6968 28.098 91.5819 27.9342 91.5181 27.7452C91.4542 27.5562 91.4287 27.3546 91.4287 27.1278V25.2H90.7268ZM100.059 31.689C100.685 31.689 101.26 31.563 101.77 31.2984C102.281 31.0464 102.651 30.6684 102.881 30.1644H102.983V31.5H103.686V27.3168C103.686 26.4978 103.43 25.9056 102.92 25.5528C102.409 25.2 101.681 25.011 100.736 25.011C100.328 25.011 99.9573 25.0488 99.6253 25.1244C99.2933 25.2 98.9996 25.3134 98.7442 25.4772C98.4889 25.6536 98.2718 25.8804 98.1186 26.1576C97.9653 26.4348 97.8632 26.7876 97.8249 27.2034H98.5016C98.5655 26.586 98.7953 26.1702 99.1784 25.9434C99.5614 25.7166 100.085 25.6032 100.736 25.6032C101.49 25.6032 102.051 25.7418 102.422 25.9938C102.792 26.2458 102.983 26.6868 102.983 27.3168V27.9342C102.498 27.909 102.077 27.8712 101.694 27.846C101.311 27.8208 100.889 27.8082 100.43 27.8082C99.8934 27.8082 99.4465 27.8586 99.089 27.9594C98.7315 28.0602 98.4378 28.1988 98.2335 28.3752C98.0164 28.5516 97.8632 28.7532 97.7738 28.98C97.6844 29.2068 97.6461 29.4462 97.6461 29.6982C97.6461 30.0636 97.6972 30.366 97.8249 30.618C97.9398 30.87 98.1058 31.0842 98.3229 31.2354C98.5272 31.3992 98.7825 31.5126 99.0762 31.5882C99.3699 31.6638 99.7019 31.689 100.059 31.689ZM100.289 31.0968C99.5997 31.0968 99.1018 30.9834 98.7953 30.7566C98.4889 30.5298 98.3484 30.177 98.3484 29.6982C98.3484 29.4966 98.3739 29.3202 98.4378 29.1564C98.5016 28.9926 98.6165 28.854 98.7953 28.728C98.9613 28.602 99.1911 28.5138 99.4976 28.4382C99.7913 28.3752 100.174 28.3374 100.66 28.3374C100.979 28.3374 101.336 28.35 101.719 28.3752C102.102 28.4004 102.524 28.413 102.983 28.4382V28.9674C102.983 29.3706 102.894 29.6982 102.728 29.9628C102.562 30.24 102.345 30.4542 102.09 30.618C101.821 30.7944 101.528 30.9078 101.209 30.9834C100.889 31.059 100.583 31.0968 100.289 31.0968ZM111.477 29.4462H110.775C110.724 29.7612 110.622 30.0258 110.494 30.2274C110.354 30.4416 110.175 30.6054 109.971 30.7314C109.766 30.8574 109.524 30.9582 109.243 31.0086C108.962 31.059 108.668 31.0842 108.336 31.0842C107.915 31.0842 107.545 31.0464 107.225 30.9708C106.893 30.8952 106.625 30.744 106.408 30.5424C106.178 30.3408 106.012 30.0636 105.897 29.7108C105.77 29.358 105.719 28.917 105.719 28.3878C105.719 27.8334 105.77 27.3798 105.897 27.027C106.012 26.6742 106.178 26.3844 106.408 26.1828C106.625 25.9812 106.893 25.83 107.225 25.7418C107.545 25.6662 107.915 25.6158 108.336 25.6158C108.656 25.6158 108.949 25.641 109.217 25.6914C109.485 25.7418 109.728 25.83 109.932 25.956C110.137 26.082 110.315 26.2458 110.456 26.4474C110.584 26.649 110.686 26.9136 110.737 27.216H111.452C111.324 26.4096 110.992 25.83 110.443 25.5024C109.894 25.1748 109.192 25.011 108.336 25.011C107.8 25.011 107.328 25.074 106.919 25.1874C106.51 25.3008 106.166 25.4898 105.885 25.7544C105.604 26.019 105.387 26.3718 105.233 26.8002C105.08 27.2286 105.016 27.7578 105.016 28.3878C105.016 29.0052 105.08 29.5218 105.233 29.9376C105.387 30.366 105.604 30.7062 105.885 30.9582C106.166 31.2228 106.51 31.4118 106.919 31.5252C107.328 31.6386 107.8 31.689 108.336 31.689C109.217 31.689 109.932 31.5252 110.481 31.185C111.03 30.8448 111.362 30.2652 111.477 29.4462ZM117.774 25.2H111.926V25.8048H114.493V31.5H115.195V25.8048H117.774V25.2ZM118.712 25.2V28.161C118.712 28.665 118.686 29.0934 118.648 29.4462C118.61 29.799 118.546 30.0762 118.469 30.2778C118.38 30.492 118.265 30.6432 118.137 30.7314C118.01 30.8322 117.856 30.87 117.678 30.87V31.5H117.831C118.393 31.5 118.788 31.2354 119.031 30.7062C119.261 30.177 119.389 29.3706 119.389 28.2744V25.8048H123.155V31.5H123.858V25.2H118.712ZM130.44 31.5H131.142V25.2H130.708L126.15 30.366V25.2H125.447V31.5H125.881L130.44 26.3718V31.5ZM132.729 25.2V31.5H136.394C136.751 31.5 137.07 31.4622 137.326 31.374C137.581 31.2984 137.798 31.1724 137.964 31.0212C138.13 30.87 138.258 30.6936 138.335 30.492C138.411 30.2904 138.45 30.0636 138.45 29.8242C138.45 28.9548 137.964 28.4634 137.007 28.3626V28.224C137.39 28.161 137.683 28.0098 137.913 27.7704C138.143 27.5436 138.258 27.2034 138.258 26.7624C138.258 26.5608 138.22 26.3718 138.143 26.1828C138.066 25.9938 137.952 25.83 137.798 25.6788C137.632 25.5402 137.415 25.4268 137.16 25.3386C136.905 25.2504 136.585 25.2 136.202 25.2H132.729ZM133.431 28.5894H136.292C136.573 28.5894 136.815 28.6272 137.007 28.6902C137.185 28.7532 137.339 28.8414 137.454 28.9422C137.556 29.0556 137.632 29.1816 137.683 29.3202C137.722 29.4588 137.747 29.5974 137.747 29.7486C137.747 30.1896 137.594 30.492 137.313 30.6558C137.032 30.8196 136.675 30.8952 136.253 30.8952H133.431V28.5894ZM133.431 25.8048H136.138C136.432 25.8048 136.675 25.8426 136.866 25.893C137.045 25.956 137.198 26.0316 137.3 26.1324C137.402 26.2332 137.466 26.3466 137.505 26.4726C137.543 26.5986 137.568 26.7372 137.568 26.8632C137.568 27.0144 137.543 27.153 137.505 27.2916C137.454 27.4302 137.39 27.5562 137.288 27.657C137.185 27.7578 137.058 27.846 136.905 27.909C136.739 27.9846 136.534 28.0098 136.304 28.0098H133.431V25.8048ZM148.737 29.4462H148.034C147.983 29.7612 147.881 30.0258 147.753 30.2274C147.613 30.4416 147.434 30.6054 147.23 30.7314C147.026 30.8574 146.783 30.9582 146.502 31.0086C146.221 31.059 145.927 31.0842 145.595 31.0842C145.174 31.0842 144.804 31.0464 144.485 30.9708C144.153 30.8952 143.884 30.744 143.667 30.5424C143.438 30.3408 143.272 30.0636 143.157 29.7108C143.029 29.358 142.978 28.917 142.978 28.3878C142.978 27.8334 143.029 27.3798 143.157 27.027C143.272 26.6742 143.438 26.3844 143.667 26.1828C143.884 25.9812 144.153 25.83 144.485 25.7418C144.804 25.6662 145.174 25.6158 145.595 25.6158C145.915 25.6158 146.208 25.641 146.476 25.6914C146.745 25.7418 146.987 25.83 147.192 25.956C147.396 26.082 147.575 26.2458 147.715 26.4474C147.843 26.649 147.945 26.9136 147.996 27.216H148.711C148.583 26.4096 148.251 25.83 147.702 25.5024C147.153 25.1748 146.451 25.011 145.595 25.011C145.059 25.011 144.587 25.074 144.178 25.1874C143.77 25.3008 143.425 25.4898 143.144 25.7544C142.863 26.019 142.646 26.3718 142.493 26.8002C142.339 27.2286 142.276 27.7578 142.276 28.3878C142.276 29.0052 142.339 29.5218 142.493 29.9376C142.646 30.366 142.863 30.7062 143.144 30.9582C143.425 31.2228 143.77 31.4118 144.178 31.5252C144.587 31.6386 145.059 31.689 145.595 31.689C146.476 31.689 147.192 31.5252 147.741 31.185C148.29 30.8448 148.622 30.2652 148.737 29.4462ZM152.144 31.689C152.77 31.689 153.344 31.563 153.855 31.2984C154.366 31.0464 154.736 30.6684 154.966 30.1644H155.068V31.5H155.77V27.3168C155.77 26.4978 155.515 25.9056 155.004 25.5528C154.493 25.2 153.766 25.011 152.821 25.011C152.412 25.011 152.042 25.0488 151.71 25.1244C151.378 25.2 151.084 25.3134 150.829 25.4772C150.573 25.6536 150.356 25.8804 150.203 26.1576C150.05 26.4348 149.948 26.7876 149.909 27.2034H150.586C150.65 26.586 150.88 26.1702 151.263 25.9434C151.646 25.7166 152.17 25.6032 152.821 25.6032C153.574 25.6032 154.136 25.7418 154.506 25.9938C154.876 26.2458 155.068 26.6868 155.068 27.3168V27.9342C154.583 27.909 154.161 27.8712 153.778 27.846C153.395 27.8208 152.974 27.8082 152.514 27.8082C151.978 27.8082 151.531 27.8586 151.174 27.9594C150.816 28.0602 150.522 28.1988 150.318 28.3752C150.101 28.5516 149.948 28.7532 149.858 28.98C149.769 29.2068 149.731 29.4462 149.731 29.6982C149.731 30.0636 149.782 30.366 149.909 30.618C150.024 30.87 150.19 31.0842 150.407 31.2354C150.612 31.3992 150.867 31.5126 151.161 31.5882C151.454 31.6638 151.786 31.689 152.144 31.689ZM152.374 31.0968C151.684 31.0968 151.186 30.9834 150.88 30.7566C150.573 30.5298 150.433 30.177 150.433 29.6982C150.433 29.4966 150.459 29.3202 150.522 29.1564C150.586 28.9926 150.701 28.854 150.88 28.728C151.046 28.602 151.276 28.5138 151.582 28.4382C151.876 28.3752 152.259 28.3374 152.744 28.3374C153.063 28.3374 153.421 28.35 153.804 28.3752C154.187 28.4004 154.608 28.413 155.068 28.4382V28.9674C155.068 29.3706 154.979 29.6982 154.813 29.9628C154.647 30.24 154.43 30.4542 154.174 30.618C153.906 30.7944 153.612 30.9078 153.293 30.9834C152.974 31.059 152.668 31.0968 152.374 31.0968ZM158.034 26.4222L160.83 29.4336L163.639 26.4222V31.5H164.342V25.2H163.882L160.83 28.539L157.791 25.2H157.332V31.5H158.034V26.4222ZM173.833 31.5H174.536V25.2H174.102L169.543 30.366V25.2H168.841V31.5H169.275L173.833 26.3718V31.5ZM179.041 25.2V31.5H179.744V25.8048H184.11V31.5H184.826V25.2H179.041ZM189.488 31.0842C189.067 31.0842 188.696 31.0464 188.377 30.9708C188.045 30.8952 187.777 30.744 187.56 30.5424C187.33 30.3408 187.164 30.0636 187.049 29.7108C186.921 29.358 186.87 28.917 186.87 28.3878C186.87 27.8334 186.921 27.3798 187.049 27.027C187.164 26.6742 187.33 26.3844 187.56 26.1828C187.777 25.9812 188.045 25.83 188.377 25.7418C188.696 25.6662 189.067 25.6158 189.488 25.6158C189.897 25.6158 190.254 25.6662 190.586 25.7418C190.918 25.83 191.186 25.9812 191.416 26.1828C191.646 26.397 191.812 26.6868 191.94 27.0396C192.054 27.3924 192.118 27.846 192.118 28.3878C192.118 28.917 192.054 29.358 191.94 29.7108C191.812 30.0636 191.646 30.3408 191.416 30.5424C191.186 30.744 190.918 30.8952 190.599 30.9708C190.267 31.0464 189.897 31.0842 189.488 31.0842ZM189.488 25.011C188.952 25.011 188.479 25.074 188.071 25.1874C187.662 25.3008 187.317 25.4898 187.036 25.7544C186.755 26.019 186.538 26.3718 186.385 26.8002C186.232 27.2286 186.168 27.7578 186.168 28.3878C186.168 29.0052 186.232 29.5218 186.385 29.9376C186.538 30.366 186.755 30.7062 187.036 30.9582C187.317 31.2228 187.662 31.4118 188.071 31.5252C188.479 31.6386 188.952 31.689 189.488 31.689C190.024 31.689 190.497 31.6386 190.905 31.5252C191.314 31.4118 191.671 31.2228 191.952 30.9582C192.233 30.7062 192.438 30.366 192.591 29.9376C192.731 29.5218 192.808 29.0052 192.808 28.3878C192.808 27.7578 192.731 27.2286 192.591 26.8002C192.438 26.3718 192.233 26.019 191.952 25.7544C191.671 25.4898 191.314 25.3008 190.905 25.1874C190.497 25.074 190.024 25.011 189.488 25.011ZM194.881 26.4222L197.677 29.4336L200.486 26.4222V31.5H201.189V25.2H200.729L197.677 28.539L194.638 25.2H194.179V31.5H194.881V26.4222ZM205.86 31.0842C205.439 31.0842 205.069 31.0464 204.749 30.9708C204.417 30.8952 204.149 30.744 203.932 30.5424C203.702 30.3408 203.536 30.0636 203.421 29.7108C203.294 29.358 203.243 28.917 203.243 28.3878C203.243 27.8334 203.294 27.3798 203.421 27.027C203.536 26.6742 203.702 26.3844 203.932 26.1828C204.149 25.9812 204.417 25.83 204.749 25.7418C205.069 25.6662 205.439 25.6158 205.86 25.6158C206.269 25.6158 206.626 25.6662 206.958 25.7418C207.29 25.83 207.558 25.9812 207.788 26.1828C208.018 26.397 208.184 26.6868 208.312 27.0396C208.427 27.3924 208.491 27.846 208.491 28.3878C208.491 28.917 208.427 29.358 208.312 29.7108C208.184 30.0636 208.018 30.3408 207.788 30.5424C207.558 30.744 207.29 30.8952 206.971 30.9708C206.639 31.0464 206.269 31.0842 205.86 31.0842ZM205.86 25.011C205.324 25.011 204.851 25.074 204.443 25.1874C204.034 25.3008 203.69 25.4898 203.409 25.7544C203.128 26.019 202.911 26.3718 202.757 26.8002C202.604 27.2286 202.54 27.7578 202.54 28.3878C202.54 29.0052 202.604 29.5218 202.757 29.9376C202.911 30.366 203.128 30.7062 203.409 30.9582C203.69 31.2228 204.034 31.4118 204.443 31.5252C204.851 31.6386 205.324 31.689 205.86 31.689C206.396 31.689 206.869 31.6386 207.278 31.5252C207.686 31.4118 208.044 31.2228 208.325 30.9582C208.605 30.7062 208.81 30.366 208.963 29.9376C209.103 29.5218 209.18 29.0052 209.18 28.3878C209.18 27.7578 209.103 27.2286 208.963 26.8002C208.81 26.3718 208.605 26.019 208.325 25.7544C208.044 25.4898 207.686 25.3008 207.278 25.1874C206.869 25.074 206.396 25.011 205.86 25.011ZM210.551 25.2V31.5H211.253V25.8048H215.02V25.2H210.551ZM217.783 31.689C218.409 31.689 218.984 31.563 219.494 31.2984C220.005 31.0464 220.376 30.6684 220.605 30.1644H220.708V31.5H221.41V27.3168C221.41 26.4978 221.154 25.9056 220.644 25.5528C220.133 25.2 219.405 25.011 218.46 25.011C218.052 25.011 217.681 25.0488 217.349 25.1244C217.017 25.2 216.724 25.3134 216.468 25.4772C216.213 25.6536 215.996 25.8804 215.843 26.1576C215.689 26.4348 215.587 26.7876 215.549 27.2034H216.226C216.29 26.586 216.519 26.1702 216.902 25.9434C217.285 25.7166 217.809 25.6032 218.46 25.6032C219.214 25.6032 219.775 25.7418 220.146 25.9938C220.516 26.2458 220.708 26.6868 220.708 27.3168V27.9342C220.222 27.909 219.801 27.8712 219.418 27.846C219.035 27.8208 218.613 27.8082 218.154 27.8082C217.617 27.8082 217.171 27.8586 216.813 27.9594C216.456 28.0602 216.162 28.1988 215.958 28.3752C215.74 28.5516 215.587 28.7532 215.498 28.98C215.408 29.2068 215.37 29.4462 215.37 29.6982C215.37 30.0636 215.421 30.366 215.549 30.618C215.664 30.87 215.83 31.0842 216.047 31.2354C216.251 31.3992 216.507 31.5126 216.8 31.5882C217.094 31.6638 217.426 31.689 217.783 31.689ZM218.013 31.0968C217.324 31.0968 216.826 30.9834 216.519 30.7566C216.213 30.5298 216.072 30.177 216.072 29.6982C216.072 29.4966 216.098 29.3202 216.162 29.1564C216.226 28.9926 216.341 28.854 216.519 28.728C216.685 28.602 216.915 28.5138 217.222 28.4382C217.515 28.3752 217.898 28.3374 218.384 28.3374C218.703 28.3374 219.06 28.35 219.443 28.3752C219.826 28.4004 220.248 28.413 220.708 28.4382V28.9674C220.708 29.3706 220.618 29.6982 220.452 29.9628C220.286 30.24 220.069 30.4542 219.814 30.618C219.546 30.7944 219.252 30.9078 218.933 30.9834C218.613 31.059 218.307 31.0968 218.013 31.0968ZM227.964 31.5H228.666V25.2H228.232L223.673 30.366V25.2H222.971V31.5H223.405L227.964 26.3718V31.5ZM225.819 24.2928C226.483 24.2928 226.968 24.1668 227.287 23.9022C227.593 23.6502 227.759 23.2092 227.759 22.5918H227.159C227.159 23.0454 227.044 23.3604 226.827 23.5116C226.598 23.6628 226.266 23.7384 225.819 23.7384C225.359 23.7384 225.027 23.6628 224.81 23.5116C224.58 23.3604 224.478 23.0454 224.478 22.5918H223.878C223.878 23.2092 224.031 23.6502 224.35 23.9022C224.657 24.1668 225.155 24.2928 225.819 24.2928ZM233.838 25.2V27.1404C233.838 27.6948 233.813 28.1862 233.787 28.5894C233.749 29.0052 233.698 29.358 233.634 29.6604C233.57 29.9628 233.494 30.2022 233.391 30.4038C233.289 30.6054 233.174 30.7692 233.047 30.8952H232.293V33.39H232.996V31.5H239.252V33.39H239.955V30.8952H238.908V25.2H233.838ZM234.528 27.2538V25.8048H238.205V30.8952H233.838C234.043 30.5928 234.209 30.1644 234.336 29.5974C234.464 29.043 234.528 28.2618 234.528 27.2538ZM244.273 31.689C244.771 31.689 245.205 31.6386 245.588 31.5252C245.971 31.4244 246.278 31.2354 246.533 30.9834C246.789 30.7314 246.98 30.3912 247.108 29.9628C247.235 29.5344 247.299 29.0052 247.299 28.3626C247.299 27.72 247.235 27.1782 247.108 26.7498C246.98 26.3214 246.789 25.9812 246.533 25.7292C246.278 25.4772 245.971 25.2882 245.588 25.1748C245.205 25.074 244.771 25.011 244.273 25.011C243.635 25.011 243.086 25.137 242.651 25.3638C242.205 25.6032 241.885 25.956 241.694 26.4348H241.592V25.2H240.889V33.768H241.592V30.2652H241.694C241.885 30.744 242.205 31.1094 242.651 31.3362C243.086 31.5756 243.635 31.689 244.273 31.689ZM244.056 25.6032C244.49 25.6032 244.873 25.6536 245.205 25.7292C245.524 25.8048 245.793 25.956 245.997 26.1576C246.201 26.3592 246.354 26.649 246.457 27.0018C246.559 27.3546 246.61 27.8082 246.61 28.3626C246.61 28.917 246.559 29.3706 246.457 29.7234C246.354 30.0762 246.201 30.3534 245.997 30.555C245.793 30.7566 245.524 30.9078 245.205 30.9834C244.873 31.059 244.49 31.0968 244.056 31.0968C243.737 31.0968 243.43 31.0716 243.137 31.0086C242.843 30.9582 242.588 30.8448 242.358 30.6936C242.128 30.5424 241.936 30.3156 241.796 30.0384C241.656 29.7612 241.592 29.3958 241.592 28.9422V27.6318C241.604 27.216 241.681 26.8758 241.822 26.6112C241.962 26.3466 242.154 26.145 242.383 25.9938C242.613 25.8426 242.869 25.7418 243.162 25.6914C243.443 25.641 243.75 25.6032 244.056 25.6032ZM250.873 31.311L249.66 33.768H250.388L254.601 25.2H253.848L251.23 30.5928L248.37 25.2H247.604L250.873 31.311ZM255.391 25.2V31.5H256.093V25.8048H259.86V25.2H255.391ZM265.883 31.5H266.586V25.2H266.151L261.593 30.366V25.2H260.891V31.5H261.325L265.883 26.3718V31.5ZM268.875 26.4222L271.671 29.4336L274.48 26.4222V31.5H275.183V25.2H274.723L271.671 28.539L268.632 25.2H268.173V31.5H268.875V26.4222ZM277.109 31.5H278.079V30.0888H277.109V31.5ZM277.939 28.6776V22.7304H277.236V28.6776H277.939Z"/>
</mask>
<path d="M58.3604 28.8918C58.3604 28.4382 58.2965 28.0602 58.1816 27.7452C58.0539 27.4302 57.8752 27.1782 57.6326 26.9766C57.3772 26.775 57.058 26.6364 56.6749 26.5482C56.2791 26.46 55.8066 26.4096 55.2576 26.4096H51.81V23.499H57.6964V22.806H51.0822V31.5H55.2831C56.3302 31.5 57.0963 31.2984 57.607 30.87C58.105 30.4542 58.3604 29.799 58.3604 28.8918ZM51.81 27.1026H55.2576C55.6917 27.1026 56.062 27.1404 56.3685 27.1908C56.6749 27.2538 56.9175 27.3546 57.0963 27.4932C57.2751 27.6318 57.4155 27.8208 57.4921 28.0476C57.5687 28.2744 57.6198 28.5642 57.6198 28.8918C57.6198 29.61 57.4155 30.114 57.0324 30.3912C56.6366 30.6684 56.0492 30.807 55.2831 30.807H51.81V27.1026ZM62.1977 31.311L60.9846 33.768H61.7125L65.9261 25.2H65.1728L62.5552 30.5928L59.695 25.2H58.9289L62.1977 31.311ZM67.1342 25.2V27.1404C67.1342 27.6948 67.1086 28.1862 67.0831 28.5894C67.0448 29.0052 66.9937 29.358 66.9298 29.6604C66.866 29.9628 66.7894 30.2022 66.6872 30.4038C66.5851 30.6054 66.4702 30.7692 66.3425 30.8952H65.5891V33.39H66.2914V31.5H72.5481V33.39H73.2504V30.8952H72.2033V25.2H67.1342ZM67.8237 27.2538V25.8048H71.5011V30.8952H67.1342C67.3385 30.5928 67.5044 30.1644 67.6321 29.5974C67.7598 29.043 67.8237 28.2618 67.8237 27.2538ZM77.6327 27.5814H74.8874V25.2H74.1851V31.5H77.7221C78.4627 31.5 79.0117 31.311 79.3437 30.933C79.6757 30.555 79.8417 30.0636 79.8417 29.4714C79.8417 29.2068 79.8034 28.9548 79.7268 28.728C79.6502 28.5012 79.5225 28.2996 79.3437 28.1232C79.1649 27.9594 78.9479 27.8334 78.667 27.7326C78.386 27.6318 78.0413 27.5814 77.6327 27.5814ZM74.8874 28.161H77.6199C77.9264 28.161 78.169 28.1988 78.3733 28.2744C78.5648 28.35 78.718 28.4382 78.833 28.5642C78.9479 28.6902 79.0245 28.8288 79.0756 28.98C79.1139 29.1312 79.1394 29.295 79.1394 29.4714C79.1394 29.7486 79.1011 29.9754 79.0245 30.1518C78.9479 30.3408 78.833 30.492 78.6925 30.5928C78.552 30.7062 78.386 30.7818 78.1945 30.8322C78.003 30.8826 77.7987 30.8952 77.5816 30.8952H74.8874V28.161ZM89.6811 29.4462H88.9788C88.9277 29.7612 88.8256 30.0258 88.6979 30.2274C88.5574 30.4416 88.3787 30.6054 88.1744 30.7314C87.9701 30.8574 87.7275 30.9582 87.4466 31.0086C87.1656 31.059 86.872 31.0842 86.54 31.0842C86.1186 31.0842 85.7483 31.0464 85.4291 30.9708C85.0971 30.8952 84.829 30.744 84.6119 30.5424C84.3821 30.3408 84.2161 30.0636 84.1011 29.7108C83.9735 29.358 83.9224 28.917 83.9224 28.3878C83.9224 27.8334 83.9735 27.3798 84.1011 27.027C84.2161 26.6742 84.3821 26.3844 84.6119 26.1828C84.829 25.9812 85.0971 25.83 85.4291 25.7418C85.7483 25.6662 86.1186 25.6158 86.54 25.6158C86.8592 25.6158 87.1529 25.641 87.421 25.6914C87.6892 25.7418 87.9318 25.83 88.1361 25.956C88.3404 26.082 88.5191 26.2458 88.6596 26.4474C88.7873 26.649 88.8894 26.9136 88.9405 27.216H89.6555C89.5279 26.4096 89.1959 25.83 88.6468 25.5024C88.0978 25.1748 87.3955 25.011 86.54 25.011C86.0037 25.011 85.5312 25.074 85.1226 25.1874C84.7141 25.3008 84.3693 25.4898 84.0884 25.7544C83.8075 26.019 83.5904 26.3718 83.4372 26.8002C83.284 27.2286 83.2201 27.7578 83.2201 28.3878C83.2201 29.0052 83.284 29.5218 83.4372 29.9376C83.5904 30.366 83.8075 30.7062 84.0884 30.9582C84.3693 31.2228 84.7141 31.4118 85.1226 31.5252C85.5312 31.6386 86.0037 31.689 86.54 31.689C87.421 31.689 88.1361 31.5252 88.6851 31.185C89.2342 30.8448 89.5662 30.2652 89.6811 29.4462ZM90.7268 25.2V27.1278C90.7268 27.4554 90.7778 27.7452 90.88 28.0098C90.9821 28.2744 91.1354 28.5012 91.3648 28.6902C91.5819 28.8792 91.8628 29.0178 92.2203 29.1186C92.5779 29.2194 92.9992 29.2698 93.4972 29.2698C93.8803 29.2698 94.2378 29.2446 94.5953 29.1942C94.9401 29.1438 95.2848 29.0808 95.6423 28.98V31.5H96.3446V25.2H95.6423V28.4004C95.2848 28.5012 94.9273 28.5642 94.5825 28.6146C94.225 28.665 93.8675 28.6776 93.4972 28.6776C93.0886 28.6776 92.7438 28.6398 92.4885 28.5642C92.2203 28.4886 92.0033 28.3752 91.85 28.2366C91.6968 28.098 91.5819 27.9342 91.5181 27.7452C91.4542 27.5562 91.4287 27.3546 91.4287 27.1278V25.2H90.7268ZM100.059 31.689C100.685 31.689 101.26 31.563 101.77 31.2984C102.281 31.0464 102.651 30.6684 102.881 30.1644H102.983V31.5H103.686V27.3168C103.686 26.4978 103.43 25.9056 102.92 25.5528C102.409 25.2 101.681 25.011 100.736 25.011C100.328 25.011 99.9573 25.0488 99.6253 25.1244C99.2933 25.2 98.9996 25.3134 98.7442 25.4772C98.4889 25.6536 98.2718 25.8804 98.1186 26.1576C97.9653 26.4348 97.8632 26.7876 97.8249 27.2034H98.5016C98.5655 26.586 98.7953 26.1702 99.1784 25.9434C99.5614 25.7166 100.085 25.6032 100.736 25.6032C101.49 25.6032 102.051 25.7418 102.422 25.9938C102.792 26.2458 102.983 26.6868 102.983 27.3168V27.9342C102.498 27.909 102.077 27.8712 101.694 27.846C101.311 27.8208 100.889 27.8082 100.43 27.8082C99.8934 27.8082 99.4465 27.8586 99.089 27.9594C98.7315 28.0602 98.4378 28.1988 98.2335 28.3752C98.0164 28.5516 97.8632 28.7532 97.7738 28.98C97.6844 29.2068 97.6461 29.4462 97.6461 29.6982C97.6461 30.0636 97.6972 30.366 97.8249 30.618C97.9398 30.87 98.1058 31.0842 98.3229 31.2354C98.5272 31.3992 98.7825 31.5126 99.0762 31.5882C99.3699 31.6638 99.7019 31.689 100.059 31.689ZM100.289 31.0968C99.5997 31.0968 99.1018 30.9834 98.7953 30.7566C98.4889 30.5298 98.3484 30.177 98.3484 29.6982C98.3484 29.4966 98.3739 29.3202 98.4378 29.1564C98.5016 28.9926 98.6165 28.854 98.7953 28.728C98.9613 28.602 99.1911 28.5138 99.4976 28.4382C99.7913 28.3752 100.174 28.3374 100.66 28.3374C100.979 28.3374 101.336 28.35 101.719 28.3752C102.102 28.4004 102.524 28.413 102.983 28.4382V28.9674C102.983 29.3706 102.894 29.6982 102.728 29.9628C102.562 30.24 102.345 30.4542 102.09 30.618C101.821 30.7944 101.528 30.9078 101.209 30.9834C100.889 31.059 100.583 31.0968 100.289 31.0968ZM111.477 29.4462H110.775C110.724 29.7612 110.622 30.0258 110.494 30.2274C110.354 30.4416 110.175 30.6054 109.971 30.7314C109.766 30.8574 109.524 30.9582 109.243 31.0086C108.962 31.059 108.668 31.0842 108.336 31.0842C107.915 31.0842 107.545 31.0464 107.225 30.9708C106.893 30.8952 106.625 30.744 106.408 30.5424C106.178 30.3408 106.012 30.0636 105.897 29.7108C105.77 29.358 105.719 28.917 105.719 28.3878C105.719 27.8334 105.77 27.3798 105.897 27.027C106.012 26.6742 106.178 26.3844 106.408 26.1828C106.625 25.9812 106.893 25.83 107.225 25.7418C107.545 25.6662 107.915 25.6158 108.336 25.6158C108.656 25.6158 108.949 25.641 109.217 25.6914C109.485 25.7418 109.728 25.83 109.932 25.956C110.137 26.082 110.315 26.2458 110.456 26.4474C110.584 26.649 110.686 26.9136 110.737 27.216H111.452C111.324 26.4096 110.992 25.83 110.443 25.5024C109.894 25.1748 109.192 25.011 108.336 25.011C107.8 25.011 107.328 25.074 106.919 25.1874C106.51 25.3008 106.166 25.4898 105.885 25.7544C105.604 26.019 105.387 26.3718 105.233 26.8002C105.08 27.2286 105.016 27.7578 105.016 28.3878C105.016 29.0052 105.08 29.5218 105.233 29.9376C105.387 30.366 105.604 30.7062 105.885 30.9582C106.166 31.2228 106.51 31.4118 106.919 31.5252C107.328 31.6386 107.8 31.689 108.336 31.689C109.217 31.689 109.932 31.5252 110.481 31.185C111.03 30.8448 111.362 30.2652 111.477 29.4462ZM117.774 25.2H111.926V25.8048H114.493V31.5H115.195V25.8048H117.774V25.2ZM118.712 25.2V28.161C118.712 28.665 118.686 29.0934 118.648 29.4462C118.61 29.799 118.546 30.0762 118.469 30.2778C118.38 30.492 118.265 30.6432 118.137 30.7314C118.01 30.8322 117.856 30.87 117.678 30.87V31.5H117.831C118.393 31.5 118.788 31.2354 119.031 30.7062C119.261 30.177 119.389 29.3706 119.389 28.2744V25.8048H123.155V31.5H123.858V25.2H118.712ZM130.44 31.5H131.142V25.2H130.708L126.15 30.366V25.2H125.447V31.5H125.881L130.44 26.3718V31.5ZM132.729 25.2V31.5H136.394C136.751 31.5 137.07 31.4622 137.326 31.374C137.581 31.2984 137.798 31.1724 137.964 31.0212C138.13 30.87 138.258 30.6936 138.335 30.492C138.411 30.2904 138.45 30.0636 138.45 29.8242C138.45 28.9548 137.964 28.4634 137.007 28.3626V28.224C137.39 28.161 137.683 28.0098 137.913 27.7704C138.143 27.5436 138.258 27.2034 138.258 26.7624C138.258 26.5608 138.22 26.3718 138.143 26.1828C138.066 25.9938 137.952 25.83 137.798 25.6788C137.632 25.5402 137.415 25.4268 137.16 25.3386C136.905 25.2504 136.585 25.2 136.202 25.2H132.729ZM133.431 28.5894H136.292C136.573 28.5894 136.815 28.6272 137.007 28.6902C137.185 28.7532 137.339 28.8414 137.454 28.9422C137.556 29.0556 137.632 29.1816 137.683 29.3202C137.722 29.4588 137.747 29.5974 137.747 29.7486C137.747 30.1896 137.594 30.492 137.313 30.6558C137.032 30.8196 136.675 30.8952 136.253 30.8952H133.431V28.5894ZM133.431 25.8048H136.138C136.432 25.8048 136.675 25.8426 136.866 25.893C137.045 25.956 137.198 26.0316 137.3 26.1324C137.402 26.2332 137.466 26.3466 137.505 26.4726C137.543 26.5986 137.568 26.7372 137.568 26.8632C137.568 27.0144 137.543 27.153 137.505 27.2916C137.454 27.4302 137.39 27.5562 137.288 27.657C137.185 27.7578 137.058 27.846 136.905 27.909C136.739 27.9846 136.534 28.0098 136.304 28.0098H133.431V25.8048ZM148.737 29.4462H148.034C147.983 29.7612 147.881 30.0258 147.753 30.2274C147.613 30.4416 147.434 30.6054 147.23 30.7314C147.026 30.8574 146.783 30.9582 146.502 31.0086C146.221 31.059 145.927 31.0842 145.595 31.0842C145.174 31.0842 144.804 31.0464 144.485 30.9708C144.153 30.8952 143.884 30.744 143.667 30.5424C143.438 30.3408 143.272 30.0636 143.157 29.7108C143.029 29.358 142.978 28.917 142.978 28.3878C142.978 27.8334 143.029 27.3798 143.157 27.027C143.272 26.6742 143.438 26.3844 143.667 26.1828C143.884 25.9812 144.153 25.83 144.485 25.7418C144.804 25.6662 145.174 25.6158 145.595 25.6158C145.915 25.6158 146.208 25.641 146.476 25.6914C146.745 25.7418 146.987 25.83 147.192 25.956C147.396 26.082 147.575 26.2458 147.715 26.4474C147.843 26.649 147.945 26.9136 147.996 27.216H148.711C148.583 26.4096 148.251 25.83 147.702 25.5024C147.153 25.1748 146.451 25.011 145.595 25.011C145.059 25.011 144.587 25.074 144.178 25.1874C143.77 25.3008 143.425 25.4898 143.144 25.7544C142.863 26.019 142.646 26.3718 142.493 26.8002C142.339 27.2286 142.276 27.7578 142.276 28.3878C142.276 29.0052 142.339 29.5218 142.493 29.9376C142.646 30.366 142.863 30.7062 143.144 30.9582C143.425 31.2228 143.77 31.4118 144.178 31.5252C144.587 31.6386 145.059 31.689 145.595 31.689C146.476 31.689 147.192 31.5252 147.741 31.185C148.29 30.8448 148.622 30.2652 148.737 29.4462ZM152.144 31.689C152.77 31.689 153.344 31.563 153.855 31.2984C154.366 31.0464 154.736 30.6684 154.966 30.1644H155.068V31.5H155.77V27.3168C155.77 26.4978 155.515 25.9056 155.004 25.5528C154.493 25.2 153.766 25.011 152.821 25.011C152.412 25.011 152.042 25.0488 151.71 25.1244C151.378 25.2 151.084 25.3134 150.829 25.4772C150.573 25.6536 150.356 25.8804 150.203 26.1576C150.05 26.4348 149.948 26.7876 149.909 27.2034H150.586C150.65 26.586 150.88 26.1702 151.263 25.9434C151.646 25.7166 152.17 25.6032 152.821 25.6032C153.574 25.6032 154.136 25.7418 154.506 25.9938C154.876 26.2458 155.068 26.6868 155.068 27.3168V27.9342C154.583 27.909 154.161 27.8712 153.778 27.846C153.395 27.8208 152.974 27.8082 152.514 27.8082C151.978 27.8082 151.531 27.8586 151.174 27.9594C150.816 28.0602 150.522 28.1988 150.318 28.3752C150.101 28.5516 149.948 28.7532 149.858 28.98C149.769 29.2068 149.731 29.4462 149.731 29.6982C149.731 30.0636 149.782 30.366 149.909 30.618C150.024 30.87 150.19 31.0842 150.407 31.2354C150.612 31.3992 150.867 31.5126 151.161 31.5882C151.454 31.6638 151.786 31.689 152.144 31.689ZM152.374 31.0968C151.684 31.0968 151.186 30.9834 150.88 30.7566C150.573 30.5298 150.433 30.177 150.433 29.6982C150.433 29.4966 150.459 29.3202 150.522 29.1564C150.586 28.9926 150.701 28.854 150.88 28.728C151.046 28.602 151.276 28.5138 151.582 28.4382C151.876 28.3752 152.259 28.3374 152.744 28.3374C153.063 28.3374 153.421 28.35 153.804 28.3752C154.187 28.4004 154.608 28.413 155.068 28.4382V28.9674C155.068 29.3706 154.979 29.6982 154.813 29.9628C154.647 30.24 154.43 30.4542 154.174 30.618C153.906 30.7944 153.612 30.9078 153.293 30.9834C152.974 31.059 152.668 31.0968 152.374 31.0968ZM158.034 26.4222L160.83 29.4336L163.639 26.4222V31.5H164.342V25.2H163.882L160.83 28.539L157.791 25.2H157.332V31.5H158.034V26.4222ZM173.833 31.5H174.536V25.2H174.102L169.543 30.366V25.2H168.841V31.5H169.275L173.833 26.3718V31.5ZM179.041 25.2V31.5H179.744V25.8048H184.11V31.5H184.826V25.2H179.041ZM189.488 31.0842C189.067 31.0842 188.696 31.0464 188.377 30.9708C188.045 30.8952 187.777 30.744 187.56 30.5424C187.33 30.3408 187.164 30.0636 187.049 29.7108C186.921 29.358 186.87 28.917 186.87 28.3878C186.87 27.8334 186.921 27.3798 187.049 27.027C187.164 26.6742 187.33 26.3844 187.56 26.1828C187.777 25.9812 188.045 25.83 188.377 25.7418C188.696 25.6662 189.067 25.6158 189.488 25.6158C189.897 25.6158 190.254 25.6662 190.586 25.7418C190.918 25.83 191.186 25.9812 191.416 26.1828C191.646 26.397 191.812 26.6868 191.94 27.0396C192.054 27.3924 192.118 27.846 192.118 28.3878C192.118 28.917 192.054 29.358 191.94 29.7108C191.812 30.0636 191.646 30.3408 191.416 30.5424C191.186 30.744 190.918 30.8952 190.599 30.9708C190.267 31.0464 189.897 31.0842 189.488 31.0842ZM189.488 25.011C188.952 25.011 188.479 25.074 188.071 25.1874C187.662 25.3008 187.317 25.4898 187.036 25.7544C186.755 26.019 186.538 26.3718 186.385 26.8002C186.232 27.2286 186.168 27.7578 186.168 28.3878C186.168 29.0052 186.232 29.5218 186.385 29.9376C186.538 30.366 186.755 30.7062 187.036 30.9582C187.317 31.2228 187.662 31.4118 188.071 31.5252C188.479 31.6386 188.952 31.689 189.488 31.689C190.024 31.689 190.497 31.6386 190.905 31.5252C191.314 31.4118 191.671 31.2228 191.952 30.9582C192.233 30.7062 192.438 30.366 192.591 29.9376C192.731 29.5218 192.808 29.0052 192.808 28.3878C192.808 27.7578 192.731 27.2286 192.591 26.8002C192.438 26.3718 192.233 26.019 191.952 25.7544C191.671 25.4898 191.314 25.3008 190.905 25.1874C190.497 25.074 190.024 25.011 189.488 25.011ZM194.881 26.4222L197.677 29.4336L200.486 26.4222V31.5H201.189V25.2H200.729L197.677 28.539L194.638 25.2H194.179V31.5H194.881V26.4222ZM205.86 31.0842C205.439 31.0842 205.069 31.0464 204.749 30.9708C204.417 30.8952 204.149 30.744 203.932 30.5424C203.702 30.3408 203.536 30.0636 203.421 29.7108C203.294 29.358 203.243 28.917 203.243 28.3878C203.243 27.8334 203.294 27.3798 203.421 27.027C203.536 26.6742 203.702 26.3844 203.932 26.1828C204.149 25.9812 204.417 25.83 204.749 25.7418C205.069 25.6662 205.439 25.6158 205.86 25.6158C206.269 25.6158 206.626 25.6662 206.958 25.7418C207.29 25.83 207.558 25.9812 207.788 26.1828C208.018 26.397 208.184 26.6868 208.312 27.0396C208.427 27.3924 208.491 27.846 208.491 28.3878C208.491 28.917 208.427 29.358 208.312 29.7108C208.184 30.0636 208.018 30.3408 207.788 30.5424C207.558 30.744 207.29 30.8952 206.971 30.9708C206.639 31.0464 206.269 31.0842 205.86 31.0842ZM205.86 25.011C205.324 25.011 204.851 25.074 204.443 25.1874C204.034 25.3008 203.69 25.4898 203.409 25.7544C203.128 26.019 202.911 26.3718 202.757 26.8002C202.604 27.2286 202.54 27.7578 202.54 28.3878C202.54 29.0052 202.604 29.5218 202.757 29.9376C202.911 30.366 203.128 30.7062 203.409 30.9582C203.69 31.2228 204.034 31.4118 204.443 31.5252C204.851 31.6386 205.324 31.689 205.86 31.689C206.396 31.689 206.869 31.6386 207.278 31.5252C207.686 31.4118 208.044 31.2228 208.325 30.9582C208.605 30.7062 208.81 30.366 208.963 29.9376C209.103 29.5218 209.18 29.0052 209.18 28.3878C209.18 27.7578 209.103 27.2286 208.963 26.8002C208.81 26.3718 208.605 26.019 208.325 25.7544C208.044 25.4898 207.686 25.3008 207.278 25.1874C206.869 25.074 206.396 25.011 205.86 25.011ZM210.551 25.2V31.5H211.253V25.8048H215.02V25.2H210.551ZM217.783 31.689C218.409 31.689 218.984 31.563 219.494 31.2984C220.005 31.0464 220.376 30.6684 220.605 30.1644H220.708V31.5H221.41V27.3168C221.41 26.4978 221.154 25.9056 220.644 25.5528C220.133 25.2 219.405 25.011 218.46 25.011C218.052 25.011 217.681 25.0488 217.349 25.1244C217.017 25.2 216.724 25.3134 216.468 25.4772C216.213 25.6536 215.996 25.8804 215.843 26.1576C215.689 26.4348 215.587 26.7876 215.549 27.2034H216.226C216.29 26.586 216.519 26.1702 216.902 25.9434C217.285 25.7166 217.809 25.6032 218.46 25.6032C219.214 25.6032 219.775 25.7418 220.146 25.9938C220.516 26.2458 220.708 26.6868 220.708 27.3168V27.9342C220.222 27.909 219.801 27.8712 219.418 27.846C219.035 27.8208 218.613 27.8082 218.154 27.8082C217.617 27.8082 217.171 27.8586 216.813 27.9594C216.456 28.0602 216.162 28.1988 215.958 28.3752C215.74 28.5516 215.587 28.7532 215.498 28.98C215.408 29.2068 215.37 29.4462 215.37 29.6982C215.37 30.0636 215.421 30.366 215.549 30.618C215.664 30.87 215.83 31.0842 216.047 31.2354C216.251 31.3992 216.507 31.5126 216.8 31.5882C217.094 31.6638 217.426 31.689 217.783 31.689ZM218.013 31.0968C217.324 31.0968 216.826 30.9834 216.519 30.7566C216.213 30.5298 216.072 30.177 216.072 29.6982C216.072 29.4966 216.098 29.3202 216.162 29.1564C216.226 28.9926 216.341 28.854 216.519 28.728C216.685 28.602 216.915 28.5138 217.222 28.4382C217.515 28.3752 217.898 28.3374 218.384 28.3374C218.703 28.3374 219.06 28.35 219.443 28.3752C219.826 28.4004 220.248 28.413 220.708 28.4382V28.9674C220.708 29.3706 220.618 29.6982 220.452 29.9628C220.286 30.24 220.069 30.4542 219.814 30.618C219.546 30.7944 219.252 30.9078 218.933 30.9834C218.613 31.059 218.307 31.0968 218.013 31.0968ZM227.964 31.5H228.666V25.2H228.232L223.673 30.366V25.2H222.971V31.5H223.405L227.964 26.3718V31.5ZM225.819 24.2928C226.483 24.2928 226.968 24.1668 227.287 23.9022C227.593 23.6502 227.759 23.2092 227.759 22.5918H227.159C227.159 23.0454 227.044 23.3604 226.827 23.5116C226.598 23.6628 226.266 23.7384 225.819 23.7384C225.359 23.7384 225.027 23.6628 224.81 23.5116C224.58 23.3604 224.478 23.0454 224.478 22.5918H223.878C223.878 23.2092 224.031 23.6502 224.35 23.9022C224.657 24.1668 225.155 24.2928 225.819 24.2928ZM233.838 25.2V27.1404C233.838 27.6948 233.813 28.1862 233.787 28.5894C233.749 29.0052 233.698 29.358 233.634 29.6604C233.57 29.9628 233.494 30.2022 233.391 30.4038C233.289 30.6054 233.174 30.7692 233.047 30.8952H232.293V33.39H232.996V31.5H239.252V33.39H239.955V30.8952H238.908V25.2H233.838ZM234.528 27.2538V25.8048H238.205V30.8952H233.838C234.043 30.5928 234.209 30.1644 234.336 29.5974C234.464 29.043 234.528 28.2618 234.528 27.2538ZM244.273 31.689C244.771 31.689 245.205 31.6386 245.588 31.5252C245.971 31.4244 246.278 31.2354 246.533 30.9834C246.789 30.7314 246.98 30.3912 247.108 29.9628C247.235 29.5344 247.299 29.0052 247.299 28.3626C247.299 27.72 247.235 27.1782 247.108 26.7498C246.98 26.3214 246.789 25.9812 246.533 25.7292C246.278 25.4772 245.971 25.2882 245.588 25.1748C245.205 25.074 244.771 25.011 244.273 25.011C243.635 25.011 243.086 25.137 242.651 25.3638C242.205 25.6032 241.885 25.956 241.694 26.4348H241.592V25.2H240.889V33.768H241.592V30.2652H241.694C241.885 30.744 242.205 31.1094 242.651 31.3362C243.086 31.5756 243.635 31.689 244.273 31.689ZM244.056 25.6032C244.49 25.6032 244.873 25.6536 245.205 25.7292C245.524 25.8048 245.793 25.956 245.997 26.1576C246.201 26.3592 246.354 26.649 246.457 27.0018C246.559 27.3546 246.61 27.8082 246.61 28.3626C246.61 28.917 246.559 29.3706 246.457 29.7234C246.354 30.0762 246.201 30.3534 245.997 30.555C245.793 30.7566 245.524 30.9078 245.205 30.9834C244.873 31.059 244.49 31.0968 244.056 31.0968C243.737 31.0968 243.43 31.0716 243.137 31.0086C242.843 30.9582 242.588 30.8448 242.358 30.6936C242.128 30.5424 241.936 30.3156 241.796 30.0384C241.656 29.7612 241.592 29.3958 241.592 28.9422V27.6318C241.604 27.216 241.681 26.8758 241.822 26.6112C241.962 26.3466 242.154 26.145 242.383 25.9938C242.613 25.8426 242.869 25.7418 243.162 25.6914C243.443 25.641 243.75 25.6032 244.056 25.6032ZM250.873 31.311L249.66 33.768H250.388L254.601 25.2H253.848L251.23 30.5928L248.37 25.2H247.604L250.873 31.311ZM255.391 25.2V31.5H256.093V25.8048H259.86V25.2H255.391ZM265.883 31.5H266.586V25.2H266.151L261.593 30.366V25.2H260.891V31.5H261.325L265.883 26.3718V31.5ZM268.875 26.4222L271.671 29.4336L274.48 26.4222V31.5H275.183V25.2H274.723L271.671 28.539L268.632 25.2H268.173V31.5H268.875V26.4222ZM277.109 31.5H278.079V30.0888H277.109V31.5ZM277.939 28.6776V22.7304H277.236V28.6776H277.939Z" fill="#301446"/>
<path d="M58.3604 28.8918C58.3604 28.4382 58.2965 28.0602 58.1816 27.7452C58.0539 27.4302 57.8752 27.1782 57.6326 26.9766C57.3772 26.775 57.058 26.6364 56.6749 26.5482C56.2791 26.46 55.8066 26.4096 55.2576 26.4096H51.81V23.499H57.6964V22.806H51.0822V31.5H55.2831C56.3302 31.5 57.0963 31.2984 57.607 30.87C58.105 30.4542 58.3604 29.799 58.3604 28.8918ZM51.81 27.1026H55.2576C55.6917 27.1026 56.062 27.1404 56.3685 27.1908C56.6749 27.2538 56.9175 27.3546 57.0963 27.4932C57.2751 27.6318 57.4155 27.8208 57.4921 28.0476C57.5687 28.2744 57.6198 28.5642 57.6198 28.8918C57.6198 29.61 57.4155 30.114 57.0324 30.3912C56.6366 30.6684 56.0492 30.807 55.2831 30.807H51.81V27.1026ZM62.1977 31.311L60.9846 33.768H61.7125L65.9261 25.2H65.1728L62.5552 30.5928L59.695 25.2H58.9289L62.1977 31.311ZM67.1342 25.2V27.1404C67.1342 27.6948 67.1086 28.1862 67.0831 28.5894C67.0448 29.0052 66.9937 29.358 66.9298 29.6604C66.866 29.9628 66.7894 30.2022 66.6872 30.4038C66.5851 30.6054 66.4702 30.7692 66.3425 30.8952H65.5891V33.39H66.2914V31.5H72.5481V33.39H73.2504V30.8952H72.2033V25.2H67.1342ZM67.8237 27.2538V25.8048H71.5011V30.8952H67.1342C67.3385 30.5928 67.5044 30.1644 67.6321 29.5974C67.7598 29.043 67.8237 28.2618 67.8237 27.2538ZM77.6327 27.5814H74.8874V25.2H74.1851V31.5H77.7221C78.4627 31.5 79.0117 31.311 79.3437 30.933C79.6757 30.555 79.8417 30.0636 79.8417 29.4714C79.8417 29.2068 79.8034 28.9548 79.7268 28.728C79.6502 28.5012 79.5225 28.2996 79.3437 28.1232C79.1649 27.9594 78.9479 27.8334 78.667 27.7326C78.386 27.6318 78.0413 27.5814 77.6327 27.5814ZM74.8874 28.161H77.6199C77.9264 28.161 78.169 28.1988 78.3733 28.2744C78.5648 28.35 78.718 28.4382 78.833 28.5642C78.9479 28.6902 79.0245 28.8288 79.0756 28.98C79.1139 29.1312 79.1394 29.295 79.1394 29.4714C79.1394 29.7486 79.1011 29.9754 79.0245 30.1518C78.9479 30.3408 78.833 30.492 78.6925 30.5928C78.552 30.7062 78.386 30.7818 78.1945 30.8322C78.003 30.8826 77.7987 30.8952 77.5816 30.8952H74.8874V28.161ZM89.6811 29.4462H88.9788C88.9277 29.7612 88.8256 30.0258 88.6979 30.2274C88.5574 30.4416 88.3787 30.6054 88.1744 30.7314C87.9701 30.8574 87.7275 30.9582 87.4466 31.0086C87.1656 31.059 86.872 31.0842 86.54 31.0842C86.1186 31.0842 85.7483 31.0464 85.4291 30.9708C85.0971 30.8952 84.829 30.744 84.6119 30.5424C84.3821 30.3408 84.2161 30.0636 84.1011 29.7108C83.9735 29.358 83.9224 28.917 83.9224 28.3878C83.9224 27.8334 83.9735 27.3798 84.1011 27.027C84.2161 26.6742 84.3821 26.3844 84.6119 26.1828C84.829 25.9812 85.0971 25.83 85.4291 25.7418C85.7483 25.6662 86.1186 25.6158 86.54 25.6158C86.8592 25.6158 87.1529 25.641 87.421 25.6914C87.6892 25.7418 87.9318 25.83 88.1361 25.956C88.3404 26.082 88.5191 26.2458 88.6596 26.4474C88.7873 26.649 88.8894 26.9136 88.9405 27.216H89.6555C89.5279 26.4096 89.1959 25.83 88.6468 25.5024C88.0978 25.1748 87.3955 25.011 86.54 25.011C86.0037 25.011 85.5312 25.074 85.1226 25.1874C84.7141 25.3008 84.3693 25.4898 84.0884 25.7544C83.8075 26.019 83.5904 26.3718 83.4372 26.8002C83.284 27.2286 83.2201 27.7578 83.2201 28.3878C83.2201 29.0052 83.284 29.5218 83.4372 29.9376C83.5904 30.366 83.8075 30.7062 84.0884 30.9582C84.3693 31.2228 84.7141 31.4118 85.1226 31.5252C85.5312 31.6386 86.0037 31.689 86.54 31.689C87.421 31.689 88.1361 31.5252 88.6851 31.185C89.2342 30.8448 89.5662 30.2652 89.6811 29.4462ZM90.7268 25.2V27.1278C90.7268 27.4554 90.7778 27.7452 90.88 28.0098C90.9821 28.2744 91.1354 28.5012 91.3648 28.6902C91.5819 28.8792 91.8628 29.0178 92.2203 29.1186C92.5779 29.2194 92.9992 29.2698 93.4972 29.2698C93.8803 29.2698 94.2378 29.2446 94.5953 29.1942C94.9401 29.1438 95.2848 29.0808 95.6423 28.98V31.5H96.3446V25.2H95.6423V28.4004C95.2848 28.5012 94.9273 28.5642 94.5825 28.6146C94.225 28.665 93.8675 28.6776 93.4972 28.6776C93.0886 28.6776 92.7438 28.6398 92.4885 28.5642C92.2203 28.4886 92.0033 28.3752 91.85 28.2366C91.6968 28.098 91.5819 27.9342 91.5181 27.7452C91.4542 27.5562 91.4287 27.3546 91.4287 27.1278V25.2H90.7268ZM100.059 31.689C100.685 31.689 101.26 31.563 101.77 31.2984C102.281 31.0464 102.651 30.6684 102.881 30.1644H102.983V31.5H103.686V27.3168C103.686 26.4978 103.43 25.9056 102.92 25.5528C102.409 25.2 101.681 25.011 100.736 25.011C100.328 25.011 99.9573 25.0488 99.6253 25.1244C99.2933 25.2 98.9996 25.3134 98.7442 25.4772C98.4889 25.6536 98.2718 25.8804 98.1186 26.1576C97.9653 26.4348 97.8632 26.7876 97.8249 27.2034H98.5016C98.5655 26.586 98.7953 26.1702 99.1784 25.9434C99.5614 25.7166 100.085 25.6032 100.736 25.6032C101.49 25.6032 102.051 25.7418 102.422 25.9938C102.792 26.2458 102.983 26.6868 102.983 27.3168V27.9342C102.498 27.909 102.077 27.8712 101.694 27.846C101.311 27.8208 100.889 27.8082 100.43 27.8082C99.8934 27.8082 99.4465 27.8586 99.089 27.9594C98.7315 28.0602 98.4378 28.1988 98.2335 28.3752C98.0164 28.5516 97.8632 28.7532 97.7738 28.98C97.6844 29.2068 97.6461 29.4462 97.6461 29.6982C97.6461 30.0636 97.6972 30.366 97.8249 30.618C97.9398 30.87 98.1058 31.0842 98.3229 31.2354C98.5272 31.3992 98.7825 31.5126 99.0762 31.5882C99.3699 31.6638 99.7019 31.689 100.059 31.689ZM100.289 31.0968C99.5997 31.0968 99.1018 30.9834 98.7953 30.7566C98.4889 30.5298 98.3484 30.177 98.3484 29.6982C98.3484 29.4966 98.3739 29.3202 98.4378 29.1564C98.5016 28.9926 98.6165 28.854 98.7953 28.728C98.9613 28.602 99.1911 28.5138 99.4976 28.4382C99.7913 28.3752 100.174 28.3374 100.66 28.3374C100.979 28.3374 101.336 28.35 101.719 28.3752C102.102 28.4004 102.524 28.413 102.983 28.4382V28.9674C102.983 29.3706 102.894 29.6982 102.728 29.9628C102.562 30.24 102.345 30.4542 102.09 30.618C101.821 30.7944 101.528 30.9078 101.209 30.9834C100.889 31.059 100.583 31.0968 100.289 31.0968ZM111.477 29.4462H110.775C110.724 29.7612 110.622 30.0258 110.494 30.2274C110.354 30.4416 110.175 30.6054 109.971 30.7314C109.766 30.8574 109.524 30.9582 109.243 31.0086C108.962 31.059 108.668 31.0842 108.336 31.0842C107.915 31.0842 107.545 31.0464 107.225 30.9708C106.893 30.8952 106.625 30.744 106.408 30.5424C106.178 30.3408 106.012 30.0636 105.897 29.7108C105.77 29.358 105.719 28.917 105.719 28.3878C105.719 27.8334 105.77 27.3798 105.897 27.027C106.012 26.6742 106.178 26.3844 106.408 26.1828C106.625 25.9812 106.893 25.83 107.225 25.7418C107.545 25.6662 107.915 25.6158 108.336 25.6158C108.656 25.6158 108.949 25.641 109.217 25.6914C109.485 25.7418 109.728 25.83 109.932 25.956C110.137 26.082 110.315 26.2458 110.456 26.4474C110.584 26.649 110.686 26.9136 110.737 27.216H111.452C111.324 26.4096 110.992 25.83 110.443 25.5024C109.894 25.1748 109.192 25.011 108.336 25.011C107.8 25.011 107.328 25.074 106.919 25.1874C106.51 25.3008 106.166 25.4898 105.885 25.7544C105.604 26.019 105.387 26.3718 105.233 26.8002C105.08 27.2286 105.016 27.7578 105.016 28.3878C105.016 29.0052 105.08 29.5218 105.233 29.9376C105.387 30.366 105.604 30.7062 105.885 30.9582C106.166 31.2228 106.51 31.4118 106.919 31.5252C107.328 31.6386 107.8 31.689 108.336 31.689C109.217 31.689 109.932 31.5252 110.481 31.185C111.03 30.8448 111.362 30.2652 111.477 29.4462ZM117.774 25.2H111.926V25.8048H114.493V31.5H115.195V25.8048H117.774V25.2ZM118.712 25.2V28.161C118.712 28.665 118.686 29.0934 118.648 29.4462C118.61 29.799 118.546 30.0762 118.469 30.2778C118.38 30.492 118.265 30.6432 118.137 30.7314C118.01 30.8322 117.856 30.87 117.678 30.87V31.5H117.831C118.393 31.5 118.788 31.2354 119.031 30.7062C119.261 30.177 119.389 29.3706 119.389 28.2744V25.8048H123.155V31.5H123.858V25.2H118.712ZM130.44 31.5H131.142V25.2H130.708L126.15 30.366V25.2H125.447V31.5H125.881L130.44 26.3718V31.5ZM132.729 25.2V31.5H136.394C136.751 31.5 137.07 31.4622 137.326 31.374C137.581 31.2984 137.798 31.1724 137.964 31.0212C138.13 30.87 138.258 30.6936 138.335 30.492C138.411 30.2904 138.45 30.0636 138.45 29.8242C138.45 28.9548 137.964 28.4634 137.007 28.3626V28.224C137.39 28.161 137.683 28.0098 137.913 27.7704C138.143 27.5436 138.258 27.2034 138.258 26.7624C138.258 26.5608 138.22 26.3718 138.143 26.1828C138.066 25.9938 137.952 25.83 137.798 25.6788C137.632 25.5402 137.415 25.4268 137.16 25.3386C136.905 25.2504 136.585 25.2 136.202 25.2H132.729ZM133.431 28.5894H136.292C136.573 28.5894 136.815 28.6272 137.007 28.6902C137.185 28.7532 137.339 28.8414 137.454 28.9422C137.556 29.0556 137.632 29.1816 137.683 29.3202C137.722 29.4588 137.747 29.5974 137.747 29.7486C137.747 30.1896 137.594 30.492 137.313 30.6558C137.032 30.8196 136.675 30.8952 136.253 30.8952H133.431V28.5894ZM133.431 25.8048H136.138C136.432 25.8048 136.675 25.8426 136.866 25.893C137.045 25.956 137.198 26.0316 137.3 26.1324C137.402 26.2332 137.466 26.3466 137.505 26.4726C137.543 26.5986 137.568 26.7372 137.568 26.8632C137.568 27.0144 137.543 27.153 137.505 27.2916C137.454 27.4302 137.39 27.5562 137.288 27.657C137.185 27.7578 137.058 27.846 136.905 27.909C136.739 27.9846 136.534 28.0098 136.304 28.0098H133.431V25.8048ZM148.737 29.4462H148.034C147.983 29.7612 147.881 30.0258 147.753 30.2274C147.613 30.4416 147.434 30.6054 147.23 30.7314C147.026 30.8574 146.783 30.9582 146.502 31.0086C146.221 31.059 145.927 31.0842 145.595 31.0842C145.174 31.0842 144.804 31.0464 144.485 30.9708C144.153 30.8952 143.884 30.744 143.667 30.5424C143.438 30.3408 143.272 30.0636 143.157 29.7108C143.029 29.358 142.978 28.917 142.978 28.3878C142.978 27.8334 143.029 27.3798 143.157 27.027C143.272 26.6742 143.438 26.3844 143.667 26.1828C143.884 25.9812 144.153 25.83 144.485 25.7418C144.804 25.6662 145.174 25.6158 145.595 25.6158C145.915 25.6158 146.208 25.641 146.476 25.6914C146.745 25.7418 146.987 25.83 147.192 25.956C147.396 26.082 147.575 26.2458 147.715 26.4474C147.843 26.649 147.945 26.9136 147.996 27.216H148.711C148.583 26.4096 148.251 25.83 147.702 25.5024C147.153 25.1748 146.451 25.011 145.595 25.011C145.059 25.011 144.587 25.074 144.178 25.1874C143.77 25.3008 143.425 25.4898 143.144 25.7544C142.863 26.019 142.646 26.3718 142.493 26.8002C142.339 27.2286 142.276 27.7578 142.276 28.3878C142.276 29.0052 142.339 29.5218 142.493 29.9376C142.646 30.366 142.863 30.7062 143.144 30.9582C143.425 31.2228 143.77 31.4118 144.178 31.5252C144.587 31.6386 145.059 31.689 145.595 31.689C146.476 31.689 147.192 31.5252 147.741 31.185C148.29 30.8448 148.622 30.2652 148.737 29.4462ZM152.144 31.689C152.77 31.689 153.344 31.563 153.855 31.2984C154.366 31.0464 154.736 30.6684 154.966 30.1644H155.068V31.5H155.77V27.3168C155.77 26.4978 155.515 25.9056 155.004 25.5528C154.493 25.2 153.766 25.011 152.821 25.011C152.412 25.011 152.042 25.0488 151.71 25.1244C151.378 25.2 151.084 25.3134 150.829 25.4772C150.573 25.6536 150.356 25.8804 150.203 26.1576C150.05 26.4348 149.948 26.7876 149.909 27.2034H150.586C150.65 26.586 150.88 26.1702 151.263 25.9434C151.646 25.7166 152.17 25.6032 152.821 25.6032C153.574 25.6032 154.136 25.7418 154.506 25.9938C154.876 26.2458 155.068 26.6868 155.068 27.3168V27.9342C154.583 27.909 154.161 27.8712 153.778 27.846C153.395 27.8208 152.974 27.8082 152.514 27.8082C151.978 27.8082 151.531 27.8586 151.174 27.9594C150.816 28.0602 150.522 28.1988 150.318 28.3752C150.101 28.5516 149.948 28.7532 149.858 28.98C149.769 29.2068 149.731 29.4462 149.731 29.6982C149.731 30.0636 149.782 30.366 149.909 30.618C150.024 30.87 150.19 31.0842 150.407 31.2354C150.612 31.3992 150.867 31.5126 151.161 31.5882C151.454 31.6638 151.786 31.689 152.144 31.689ZM152.374 31.0968C151.684 31.0968 151.186 30.9834 150.88 30.7566C150.573 30.5298 150.433 30.177 150.433 29.6982C150.433 29.4966 150.459 29.3202 150.522 29.1564C150.586 28.9926 150.701 28.854 150.88 28.728C151.046 28.602 151.276 28.5138 151.582 28.4382C151.876 28.3752 152.259 28.3374 152.744 28.3374C153.063 28.3374 153.421 28.35 153.804 28.3752C154.187 28.4004 154.608 28.413 155.068 28.4382V28.9674C155.068 29.3706 154.979 29.6982 154.813 29.9628C154.647 30.24 154.43 30.4542 154.174 30.618C153.906 30.7944 153.612 30.9078 153.293 30.9834C152.974 31.059 152.668 31.0968 152.374 31.0968ZM158.034 26.4222L160.83 29.4336L163.639 26.4222V31.5H164.342V25.2H163.882L160.83 28.539L157.791 25.2H157.332V31.5H158.034V26.4222ZM173.833 31.5H174.536V25.2H174.102L169.543 30.366V25.2H168.841V31.5H169.275L173.833 26.3718V31.5ZM179.041 25.2V31.5H179.744V25.8048H184.11V31.5H184.826V25.2H179.041ZM189.488 31.0842C189.067 31.0842 188.696 31.0464 188.377 30.9708C188.045 30.8952 187.777 30.744 187.56 30.5424C187.33 30.3408 187.164 30.0636 187.049 29.7108C186.921 29.358 186.87 28.917 186.87 28.3878C186.87 27.8334 186.921 27.3798 187.049 27.027C187.164 26.6742 187.33 26.3844 187.56 26.1828C187.777 25.9812 188.045 25.83 188.377 25.7418C188.696 25.6662 189.067 25.6158 189.488 25.6158C189.897 25.6158 190.254 25.6662 190.586 25.7418C190.918 25.83 191.186 25.9812 191.416 26.1828C191.646 26.397 191.812 26.6868 191.94 27.0396C192.054 27.3924 192.118 27.846 192.118 28.3878C192.118 28.917 192.054 29.358 191.94 29.7108C191.812 30.0636 191.646 30.3408 191.416 30.5424C191.186 30.744 190.918 30.8952 190.599 30.9708C190.267 31.0464 189.897 31.0842 189.488 31.0842ZM189.488 25.011C188.952 25.011 188.479 25.074 188.071 25.1874C187.662 25.3008 187.317 25.4898 187.036 25.7544C186.755 26.019 186.538 26.3718 186.385 26.8002C186.232 27.2286 186.168 27.7578 186.168 28.3878C186.168 29.0052 186.232 29.5218 186.385 29.9376C186.538 30.366 186.755 30.7062 187.036 30.9582C187.317 31.2228 187.662 31.4118 188.071 31.5252C188.479 31.6386 188.952 31.689 189.488 31.689C190.024 31.689 190.497 31.6386 190.905 31.5252C191.314 31.4118 191.671 31.2228 191.952 30.9582C192.233 30.7062 192.438 30.366 192.591 29.9376C192.731 29.5218 192.808 29.0052 192.808 28.3878C192.808 27.7578 192.731 27.2286 192.591 26.8002C192.438 26.3718 192.233 26.019 191.952 25.7544C191.671 25.4898 191.314 25.3008 190.905 25.1874C190.497 25.074 190.024 25.011 189.488 25.011ZM194.881 26.4222L197.677 29.4336L200.486 26.4222V31.5H201.189V25.2H200.729L197.677 28.539L194.638 25.2H194.179V31.5H194.881V26.4222ZM205.86 31.0842C205.439 31.0842 205.069 31.0464 204.749 30.9708C204.417 30.8952 204.149 30.744 203.932 30.5424C203.702 30.3408 203.536 30.0636 203.421 29.7108C203.294 29.358 203.243 28.917 203.243 28.3878C203.243 27.8334 203.294 27.3798 203.421 27.027C203.536 26.6742 203.702 26.3844 203.932 26.1828C204.149 25.9812 204.417 25.83 204.749 25.7418C205.069 25.6662 205.439 25.6158 205.86 25.6158C206.269 25.6158 206.626 25.6662 206.958 25.7418C207.29 25.83 207.558 25.9812 207.788 26.1828C208.018 26.397 208.184 26.6868 208.312 27.0396C208.427 27.3924 208.491 27.846 208.491 28.3878C208.491 28.917 208.427 29.358 208.312 29.7108C208.184 30.0636 208.018 30.3408 207.788 30.5424C207.558 30.744 207.29 30.8952 206.971 30.9708C206.639 31.0464 206.269 31.0842 205.86 31.0842ZM205.86 25.011C205.324 25.011 204.851 25.074 204.443 25.1874C204.034 25.3008 203.69 25.4898 203.409 25.7544C203.128 26.019 202.911 26.3718 202.757 26.8002C202.604 27.2286 202.54 27.7578 202.54 28.3878C202.54 29.0052 202.604 29.5218 202.757 29.9376C202.911 30.366 203.128 30.7062 203.409 30.9582C203.69 31.2228 204.034 31.4118 204.443 31.5252C204.851 31.6386 205.324 31.689 205.86 31.689C206.396 31.689 206.869 31.6386 207.278 31.5252C207.686 31.4118 208.044 31.2228 208.325 30.9582C208.605 30.7062 208.81 30.366 208.963 29.9376C209.103 29.5218 209.18 29.0052 209.18 28.3878C209.18 27.7578 209.103 27.2286 208.963 26.8002C208.81 26.3718 208.605 26.019 208.325 25.7544C208.044 25.4898 207.686 25.3008 207.278 25.1874C206.869 25.074 206.396 25.011 205.86 25.011ZM210.551 25.2V31.5H211.253V25.8048H215.02V25.2H210.551ZM217.783 31.689C218.409 31.689 218.984 31.563 219.494 31.2984C220.005 31.0464 220.376 30.6684 220.605 30.1644H220.708V31.5H221.41V27.3168C221.41 26.4978 221.154 25.9056 220.644 25.5528C220.133 25.2 219.405 25.011 218.46 25.011C218.052 25.011 217.681 25.0488 217.349 25.1244C217.017 25.2 216.724 25.3134 216.468 25.4772C216.213 25.6536 215.996 25.8804 215.843 26.1576C215.689 26.4348 215.587 26.7876 215.549 27.2034H216.226C216.29 26.586 216.519 26.1702 216.902 25.9434C217.285 25.7166 217.809 25.6032 218.46 25.6032C219.214 25.6032 219.775 25.7418 220.146 25.9938C220.516 26.2458 220.708 26.6868 220.708 27.3168V27.9342C220.222 27.909 219.801 27.8712 219.418 27.846C219.035 27.8208 218.613 27.8082 218.154 27.8082C217.617 27.8082 217.171 27.8586 216.813 27.9594C216.456 28.0602 216.162 28.1988 215.958 28.3752C215.74 28.5516 215.587 28.7532 215.498 28.98C215.408 29.2068 215.37 29.4462 215.37 29.6982C215.37 30.0636 215.421 30.366 215.549 30.618C215.664 30.87 215.83 31.0842 216.047 31.2354C216.251 31.3992 216.507 31.5126 216.8 31.5882C217.094 31.6638 217.426 31.689 217.783 31.689ZM218.013 31.0968C217.324 31.0968 216.826 30.9834 216.519 30.7566C216.213 30.5298 216.072 30.177 216.072 29.6982C216.072 29.4966 216.098 29.3202 216.162 29.1564C216.226 28.9926 216.341 28.854 216.519 28.728C216.685 28.602 216.915 28.5138 217.222 28.4382C217.515 28.3752 217.898 28.3374 218.384 28.3374C218.703 28.3374 219.06 28.35 219.443 28.3752C219.826 28.4004 220.248 28.413 220.708 28.4382V28.9674C220.708 29.3706 220.618 29.6982 220.452 29.9628C220.286 30.24 220.069 30.4542 219.814 30.618C219.546 30.7944 219.252 30.9078 218.933 30.9834C218.613 31.059 218.307 31.0968 218.013 31.0968ZM227.964 31.5H228.666V25.2H228.232L223.673 30.366V25.2H222.971V31.5H223.405L227.964 26.3718V31.5ZM225.819 24.2928C226.483 24.2928 226.968 24.1668 227.287 23.9022C227.593 23.6502 227.759 23.2092 227.759 22.5918H227.159C227.159 23.0454 227.044 23.3604 226.827 23.5116C226.598 23.6628 226.266 23.7384 225.819 23.7384C225.359 23.7384 225.027 23.6628 224.81 23.5116C224.58 23.3604 224.478 23.0454 224.478 22.5918H223.878C223.878 23.2092 224.031 23.6502 224.35 23.9022C224.657 24.1668 225.155 24.2928 225.819 24.2928ZM233.838 25.2V27.1404C233.838 27.6948 233.813 28.1862 233.787 28.5894C233.749 29.0052 233.698 29.358 233.634 29.6604C233.57 29.9628 233.494 30.2022 233.391 30.4038C233.289 30.6054 233.174 30.7692 233.047 30.8952H232.293V33.39H232.996V31.5H239.252V33.39H239.955V30.8952H238.908V25.2H233.838ZM234.528 27.2538V25.8048H238.205V30.8952H233.838C234.043 30.5928 234.209 30.1644 234.336 29.5974C234.464 29.043 234.528 28.2618 234.528 27.2538ZM244.273 31.689C244.771 31.689 245.205 31.6386 245.588 31.5252C245.971 31.4244 246.278 31.2354 246.533 30.9834C246.789 30.7314 246.98 30.3912 247.108 29.9628C247.235 29.5344 247.299 29.0052 247.299 28.3626C247.299 27.72 247.235 27.1782 247.108 26.7498C246.98 26.3214 246.789 25.9812 246.533 25.7292C246.278 25.4772 245.971 25.2882 245.588 25.1748C245.205 25.074 244.771 25.011 244.273 25.011C243.635 25.011 243.086 25.137 242.651 25.3638C242.205 25.6032 241.885 25.956 241.694 26.4348H241.592V25.2H240.889V33.768H241.592V30.2652H241.694C241.885 30.744 242.205 31.1094 242.651 31.3362C243.086 31.5756 243.635 31.689 244.273 31.689ZM244.056 25.6032C244.49 25.6032 244.873 25.6536 245.205 25.7292C245.524 25.8048 245.793 25.956 245.997 26.1576C246.201 26.3592 246.354 26.649 246.457 27.0018C246.559 27.3546 246.61 27.8082 246.61 28.3626C246.61 28.917 246.559 29.3706 246.457 29.7234C246.354 30.0762 246.201 30.3534 245.997 30.555C245.793 30.7566 245.524 30.9078 245.205 30.9834C244.873 31.059 244.49 31.0968 244.056 31.0968C243.737 31.0968 243.43 31.0716 243.137 31.0086C242.843 30.9582 242.588 30.8448 242.358 30.6936C242.128 30.5424 241.936 30.3156 241.796 30.0384C241.656 29.7612 241.592 29.3958 241.592 28.9422V27.6318C241.604 27.216 241.681 26.8758 241.822 26.6112C241.962 26.3466 242.154 26.145 242.383 25.9938C242.613 25.8426 242.869 25.7418 243.162 25.6914C243.443 25.641 243.75 25.6032 244.056 25.6032ZM250.873 31.311L249.66 33.768H250.388L254.601 25.2H253.848L251.23 30.5928L248.37 25.2H247.604L250.873 31.311ZM255.391 25.2V31.5H256.093V25.8048H259.86V25.2H255.391ZM265.883 31.5H266.586V25.2H266.151L261.593 30.366V25.2H260.891V31.5H261.325L265.883 26.3718V31.5ZM268.875 26.4222L271.671 29.4336L274.48 26.4222V31.5H275.183V25.2H274.723L271.671 28.539L268.632 25.2H268.173V31.5H268.875V26.4222ZM277.109 31.5H278.079V30.0888H277.109V31.5ZM277.939 28.6776V22.7304H277.236V28.6776H277.939Z" stroke="#301446" stroke-width="0.4" mask="url(#path-4-outside-1_5604_247)"/>
</svg>
